<svg width="443" height="111" viewBox="0 0 443 111" fill="none" xmlns="http://www.w3.org/2000/svg">
<path d="M44.9148 7.81818H46.1477V14.5597C46.1477 15.2557 45.9837 15.8771 45.6555 16.424C45.3307 16.9676 44.8717 17.3968 44.2784 17.7116C43.6851 18.0232 42.9891 18.179 42.1903 18.179C41.3916 18.179 40.6955 18.0232 40.1023 17.7116C39.509 17.3968 39.0483 16.9676 38.7202 16.424C38.3954 15.8771 38.233 15.2557 38.233 14.5597V7.81818H39.4659V14.4602C39.4659 14.9574 39.5753 15.3999 39.794 15.7876C40.0128 16.1721 40.3243 16.4754 40.7287 16.6974C41.1364 16.9162 41.6236 17.0256 42.1903 17.0256C42.7571 17.0256 43.2443 16.9162 43.652 16.6974C44.0597 16.4754 44.3712 16.1721 44.5866 15.7876C44.8054 15.3999 44.9148 14.9574 44.9148 14.4602V7.81818ZM49.6241 13.4062V18H48.4508V10.3636H49.5843V11.5568H49.6838C49.8627 11.169 50.1345 10.8575 50.4991 10.6222C50.8637 10.3835 51.3343 10.2642 51.911 10.2642C52.4281 10.2642 52.8805 10.3703 53.2683 10.5824C53.6561 10.7912 53.9577 11.1094 54.1731 11.5369C54.3886 11.9612 54.4963 12.4981 54.4963 13.1477V18H53.323V13.2273C53.323 12.6274 53.1672 12.16 52.8556 11.8253C52.5441 11.4872 52.1165 11.3182 51.573 11.3182C51.1984 11.3182 50.8637 11.3994 50.5687 11.5618C50.277 11.7242 50.0467 11.9612 49.8777 12.2727C49.7086 12.5843 49.6241 12.9621 49.6241 13.4062ZM57.8136 7.81818V18H56.6403V7.81818H57.8136ZM59.9625 18V10.3636H61.1358V18H59.9625ZM60.5591 9.09091C60.3304 9.09091 60.1332 9.01302 59.9675 8.85724C59.8051 8.70147 59.7239 8.5142 59.7239 8.29545C59.7239 8.0767 59.8051 7.88944 59.9675 7.73366C60.1332 7.57789 60.3304 7.5 60.5591 7.5C60.7878 7.5 60.9834 7.57789 61.1458 7.73366C61.3115 7.88944 61.3944 8.0767 61.3944 8.29545C61.3944 8.5142 61.3115 8.70147 61.1458 8.85724C60.9834 9.01302 60.7878 9.09091 60.5591 9.09091ZM63.2848 18V10.3636H64.4183V11.5568H64.5178C64.6768 11.1491 64.9337 10.8326 65.2884 10.6072C65.643 10.3786 66.0689 10.2642 66.5661 10.2642C67.0698 10.2642 67.4891 10.3786 67.8239 10.6072C68.1619 10.8326 68.4254 11.1491 68.6143 11.5568H68.6939C68.8894 11.1624 69.1828 10.8492 69.5739 10.6172C69.965 10.3819 70.4339 10.2642 70.9808 10.2642C71.6636 10.2642 72.2221 10.478 72.6562 10.9055C73.0904 11.3298 73.3075 11.991 73.3075 12.8892V18H72.1342V12.8892C72.1342 12.3258 71.9801 11.9231 71.6719 11.6811C71.3636 11.4392 71.0007 11.3182 70.5831 11.3182C70.0462 11.3182 69.6302 11.4806 69.3352 11.8054C69.0402 12.1269 68.8928 12.5346 68.8928 13.0284V18H67.6996V12.7699C67.6996 12.3357 67.5587 11.986 67.277 11.7209C66.9953 11.4524 66.6323 11.3182 66.1882 11.3182C65.8833 11.3182 65.5982 11.3994 65.3331 11.5618C65.0713 11.7242 64.8591 11.9496 64.6967 12.2379C64.5376 12.523 64.4581 12.8527 64.4581 13.2273V18H63.2848ZM75.4528 18V10.3636H76.6261V18H75.4528ZM76.0494 9.09091C75.8207 9.09091 75.6235 9.01302 75.4577 8.85724C75.2953 8.70147 75.2141 8.5142 75.2141 8.29545C75.2141 8.0767 75.2953 7.88944 75.4577 7.73366C75.6235 7.57789 75.8207 7.5 76.0494 7.5C76.2781 7.5 76.4736 7.57789 76.636 7.73366C76.8017 7.88944 76.8846 8.0767 76.8846 8.29545C76.8846 8.5142 76.8017 8.70147 76.636 8.85724C76.4736 9.01302 76.2781 9.09091 76.0494 9.09091ZM82.0961 10.3636V11.358H78.1387V10.3636H82.0961ZM79.2921 8.53409H80.4654V15.8125C80.4654 16.1439 80.5134 16.3925 80.6096 16.5582C80.709 16.7206 80.8349 16.83 80.9874 16.8864C81.1432 16.9394 81.3072 16.9659 81.4796 16.9659C81.6088 16.9659 81.7149 16.9593 81.7978 16.946C81.8806 16.9295 81.9469 16.9162 81.9966 16.9062L82.2353 17.9602C82.1557 17.9901 82.0447 18.0199 81.9022 18.0497C81.7596 18.0829 81.579 18.0994 81.3603 18.0994C81.0288 18.0994 80.704 18.0282 80.3858 17.8857C80.071 17.7431 79.8091 17.526 79.6003 17.2344C79.3948 16.9427 79.2921 16.5748 79.2921 16.1307V8.53409ZM86.9806 18.1591C86.2449 18.1591 85.6101 17.9967 85.0765 17.6719C84.5462 17.3438 84.1369 16.8864 83.8485 16.2997C83.5635 15.7098 83.421 15.0237 83.421 14.2415C83.421 13.4593 83.5635 12.7699 83.8485 12.1733C84.1369 11.5734 84.5379 11.1061 85.0517 10.7713C85.5687 10.4332 86.1719 10.2642 86.8613 10.2642C87.2591 10.2642 87.6518 10.3305 88.0396 10.4631C88.4274 10.5956 88.7804 10.8111 89.0985 11.1094C89.4167 11.4044 89.6703 11.7955 89.8592 12.2827C90.0481 12.7699 90.1426 13.3698 90.1426 14.0824V14.5795H84.2562V13.5653H88.9494C88.9494 13.1345 88.8632 12.75 88.6909 12.4119C88.5218 12.0739 88.2799 11.8071 87.965 11.6115C87.6535 11.416 87.2856 11.3182 86.8613 11.3182C86.394 11.3182 85.9896 11.4342 85.6483 11.6662C85.3102 11.8949 85.05 12.1932 84.8677 12.5611C84.6854 12.929 84.5943 13.3234 84.5943 13.7443V14.4205C84.5943 14.9972 84.6937 15.486 84.8926 15.8871C85.0948 16.2848 85.3748 16.5881 85.7328 16.7969C86.0907 17.0024 86.5067 17.1051 86.9806 17.1051C87.2889 17.1051 87.5673 17.062 87.8159 16.9759C88.0678 16.8864 88.2849 16.7538 88.4672 16.5781C88.6494 16.3991 88.7903 16.1771 88.8897 15.9119L90.0233 16.2301C89.9039 16.6146 89.7034 16.9527 89.4217 17.2443C89.14 17.5327 88.792 17.758 88.3777 17.9205C87.9634 18.0795 87.4977 18.1591 86.9806 18.1591ZM94.8109 18.1591C94.1745 18.1591 93.6127 17.9983 93.1255 17.6768C92.6383 17.352 92.2572 16.8946 91.9821 16.3047C91.707 15.7114 91.5694 15.0104 91.5694 14.2017C91.5694 13.3996 91.707 12.7036 91.9821 12.1136C92.2572 11.5237 92.64 11.0679 93.1305 10.7464C93.621 10.425 94.1878 10.2642 94.8308 10.2642C95.3279 10.2642 95.7207 10.3471 96.0091 10.5128C96.3007 10.6752 96.5228 10.8608 96.6752 11.0696C96.831 11.2751 96.952 11.4441 97.0382 11.5767H97.1376V7.81818H98.3109V18H97.1774V16.8267H97.0382C96.952 16.9659 96.8294 17.1416 96.6703 17.3537C96.5112 17.5625 96.2842 17.7498 95.9892 17.9155C95.6942 18.0779 95.3014 18.1591 94.8109 18.1591ZM94.97 17.1051C95.4406 17.1051 95.8384 16.9825 96.1632 16.7372C96.488 16.4886 96.7349 16.1456 96.9039 15.7081C97.073 15.2673 97.1575 14.7585 97.1575 14.1818C97.1575 13.6117 97.0746 13.1129 96.9089 12.6854C96.7432 12.2545 96.4979 11.9197 96.1731 11.6811C95.8483 11.4392 95.4473 11.3182 94.97 11.3182C94.4728 11.3182 94.0585 11.4458 93.7271 11.701C93.399 11.9529 93.152 12.2959 92.9863 12.7301C92.8239 13.161 92.7427 13.6449 92.7427 14.1818C92.7427 14.7254 92.8256 15.2192 92.9913 15.6634C93.1603 16.1042 93.4089 16.4555 93.737 16.7173C94.0685 16.9759 94.4795 17.1051 94.97 17.1051ZM104.56 18V10.3636H105.694V11.517H105.773C105.912 11.1392 106.164 10.8326 106.529 10.5973C106.894 10.362 107.305 10.2443 107.762 10.2443C107.848 10.2443 107.956 10.246 108.085 10.2493C108.214 10.2526 108.312 10.2576 108.378 10.2642V11.4574C108.339 11.4474 108.247 11.4325 108.105 11.4126C107.966 11.3894 107.818 11.3778 107.662 11.3778C107.291 11.3778 106.96 11.4557 106.668 11.6115C106.38 11.764 106.151 11.9761 105.982 12.2479C105.816 12.5163 105.733 12.8229 105.733 13.1676V18H104.56ZM112.738 18.1591C112.003 18.1591 111.368 17.9967 110.834 17.6719C110.304 17.3438 109.895 16.8864 109.606 16.2997C109.321 15.7098 109.179 15.0237 109.179 14.2415C109.179 13.4593 109.321 12.7699 109.606 12.1733C109.895 11.5734 110.296 11.1061 110.809 10.7713C111.327 10.4332 111.93 10.2642 112.619 10.2642C113.017 10.2642 113.41 10.3305 113.797 10.4631C114.185 10.5956 114.538 10.8111 114.856 11.1094C115.175 11.4044 115.428 11.7955 115.617 12.2827C115.806 12.7699 115.9 13.3698 115.9 14.0824V14.5795H110.014V13.5653H114.707C114.707 13.1345 114.621 12.75 114.449 12.4119C114.28 12.0739 114.038 11.8071 113.723 11.6115C113.411 11.416 113.043 11.3182 112.619 11.3182C112.152 11.3182 111.747 11.4342 111.406 11.6662C111.068 11.8949 110.808 12.1932 110.626 12.5611C110.443 12.929 110.352 13.3234 110.352 13.7443V14.4205C110.352 14.9972 110.452 15.486 110.65 15.8871C110.853 16.2848 111.133 16.5881 111.491 16.7969C111.849 17.0024 112.265 17.1051 112.738 17.1051C113.047 17.1051 113.325 17.062 113.574 16.9759C113.826 16.8864 114.043 16.7538 114.225 16.5781C114.407 16.3991 114.548 16.1771 114.648 15.9119L115.781 16.2301C115.662 16.6146 115.461 16.9527 115.18 17.2443C114.898 17.5327 114.55 17.758 114.135 17.9205C113.721 18.0795 113.256 18.1591 112.738 18.1591ZM122.895 20.8636V16.8267H122.796C122.71 16.9659 122.587 17.1416 122.428 17.3537C122.269 17.5625 122.042 17.7498 121.747 17.9155C121.452 18.0779 121.059 18.1591 120.569 18.1591C119.932 18.1591 119.371 17.9983 118.883 17.6768C118.396 17.352 118.015 16.8946 117.74 16.3047C117.465 15.7114 117.327 15.0104 117.327 14.2017C117.327 13.3996 117.465 12.7036 117.74 12.1136C118.015 11.5237 118.398 11.0679 118.888 10.7464C119.379 10.425 119.946 10.2642 120.589 10.2642C121.086 10.2642 121.479 10.3471 121.767 10.5128C122.059 10.6752 122.281 10.8608 122.433 11.0696C122.589 11.2751 122.71 11.4441 122.796 11.5767H122.935V10.3636H124.069V20.8636H122.895ZM120.728 17.1051C121.198 17.1051 121.596 16.9825 121.921 16.7372C122.246 16.4886 122.493 16.1456 122.662 15.7081C122.831 15.2673 122.915 14.7585 122.915 14.1818C122.915 13.6117 122.832 13.1129 122.667 12.6854C122.501 12.2545 122.256 11.9197 121.931 11.6811C121.606 11.4392 121.205 11.3182 120.728 11.3182C120.231 11.3182 119.816 11.4458 119.485 11.701C119.157 11.9529 118.91 12.2959 118.744 12.7301C118.582 13.161 118.501 13.6449 118.501 14.1818C118.501 14.7254 118.583 15.2192 118.749 15.6634C118.918 16.1042 119.167 16.4555 119.495 16.7173C119.826 16.9759 120.237 17.1051 120.728 17.1051ZM131.029 14.8778V10.3636H132.202V18H131.029V16.7074H130.949C130.77 17.0952 130.492 17.425 130.114 17.6967C129.736 17.9652 129.259 18.0994 128.682 18.0994C128.205 18.0994 127.781 17.995 127.41 17.7862C127.038 17.5741 126.747 17.2559 126.535 16.8317C126.323 16.4041 126.216 15.8655 126.216 15.2159V10.3636H127.39V15.1364C127.39 15.6932 127.546 16.1373 127.857 16.4688C128.172 16.8002 128.573 16.9659 129.06 16.9659C129.352 16.9659 129.648 16.8913 129.95 16.7422C130.255 16.593 130.51 16.3643 130.716 16.0561C130.925 15.7479 131.029 15.3551 131.029 14.8778ZM137.553 18.1591C136.817 18.1591 136.182 17.9967 135.649 17.6719C135.118 17.3438 134.709 16.8864 134.421 16.2997C134.136 15.7098 133.993 15.0237 133.993 14.2415C133.993 13.4593 134.136 12.7699 134.421 12.1733C134.709 11.5734 135.11 11.1061 135.624 10.7713C136.141 10.4332 136.744 10.2642 137.434 10.2642C137.831 10.2642 138.224 10.3305 138.612 10.4631C139 10.5956 139.353 10.8111 139.671 11.1094C139.989 11.4044 140.243 11.7955 140.431 12.2827C140.62 12.7699 140.715 13.3698 140.715 14.0824V14.5795H134.828V13.5653H139.522C139.522 13.1345 139.435 12.75 139.263 12.4119C139.094 12.0739 138.852 11.8071 138.537 11.6115C138.226 11.416 137.858 11.3182 137.434 11.3182C136.966 11.3182 136.562 11.4342 136.221 11.6662C135.882 11.8949 135.622 12.1932 135.44 12.5611C135.258 12.929 135.167 13.3234 135.167 13.7443V14.4205C135.167 14.9972 135.266 15.486 135.465 15.8871C135.667 16.2848 135.947 16.5881 136.305 16.7969C136.663 17.0024 137.079 17.1051 137.553 17.1051C137.861 17.1051 138.14 17.062 138.388 16.9759C138.64 16.8864 138.857 16.7538 139.039 16.5781C139.222 16.3991 139.363 16.1771 139.462 15.9119L140.596 16.2301C140.476 16.6146 140.276 16.9527 139.994 17.2443C139.712 17.5327 139.364 17.758 138.95 17.9205C138.536 18.0795 138.07 18.1591 137.553 18.1591ZM147.909 12.0739L146.855 12.3722C146.788 12.1965 146.691 12.0258 146.561 11.8601C146.435 11.6911 146.263 11.5518 146.044 11.4425C145.826 11.3331 145.546 11.2784 145.204 11.2784C144.737 11.2784 144.347 11.3861 144.036 11.6016C143.728 11.8137 143.574 12.0838 143.574 12.4119C143.574 12.7036 143.68 12.9339 143.892 13.103C144.104 13.272 144.435 13.4129 144.886 13.5256L146.02 13.804C146.702 13.9697 147.211 14.2232 147.546 14.5646C147.881 14.9027 148.048 15.3385 148.048 15.8722C148.048 16.3097 147.922 16.7008 147.67 17.0455C147.422 17.3902 147.074 17.6619 146.626 17.8608C146.179 18.0597 145.658 18.1591 145.065 18.1591C144.286 18.1591 143.641 17.9901 143.131 17.652C142.621 17.3139 142.297 16.8201 142.162 16.1705L143.275 15.892C143.381 16.303 143.582 16.6113 143.877 16.8168C144.175 17.0223 144.565 17.125 145.045 17.125C145.592 17.125 146.026 17.009 146.348 16.777C146.672 16.5417 146.835 16.2599 146.835 15.9318C146.835 15.6667 146.742 15.4446 146.556 15.2656C146.371 15.0833 146.086 14.9474 145.701 14.858L144.429 14.5597C143.729 14.3939 143.216 14.1371 142.887 13.7891C142.563 13.4377 142.4 12.9986 142.4 12.4716C142.4 12.0407 142.521 11.6596 142.763 11.3281C143.008 10.9967 143.342 10.7365 143.762 10.5476C144.187 10.3587 144.667 10.2642 145.204 10.2642C145.96 10.2642 146.553 10.4299 146.984 10.7614C147.418 11.0928 147.726 11.5303 147.909 12.0739ZM153.135 10.3636V11.358H149.178V10.3636H153.135ZM150.331 8.53409H151.504V15.8125C151.504 16.1439 151.552 16.3925 151.649 16.5582C151.748 16.7206 151.874 16.83 152.026 16.8864C152.182 16.9394 152.346 16.9659 152.519 16.9659C152.648 16.9659 152.754 16.9593 152.837 16.946C152.92 16.9295 152.986 16.9162 153.036 16.9062L153.274 17.9602C153.195 17.9901 153.084 18.0199 152.941 18.0497C152.799 18.0829 152.618 18.0994 152.399 18.0994C152.068 18.0994 151.743 18.0282 151.425 17.8857C151.11 17.7431 150.848 17.526 150.639 17.2344C150.434 16.9427 150.331 16.5748 150.331 16.1307V8.53409ZM160.172 12.0739L159.118 12.3722C159.052 12.1965 158.954 12.0258 158.825 11.8601C158.699 11.6911 158.527 11.5518 158.308 11.4425C158.089 11.3331 157.809 11.2784 157.468 11.2784C157.001 11.2784 156.611 11.3861 156.3 11.6016C155.991 11.8137 155.837 12.0838 155.837 12.4119C155.837 12.7036 155.943 12.9339 156.155 13.103C156.367 13.272 156.699 13.4129 157.15 13.5256L158.283 13.804C158.966 13.9697 159.475 14.2232 159.809 14.5646C160.144 14.9027 160.312 15.3385 160.312 15.8722C160.312 16.3097 160.186 16.7008 159.934 17.0455C159.685 17.3902 159.337 17.6619 158.89 17.8608C158.442 18.0597 157.922 18.1591 157.329 18.1591C156.55 18.1591 155.905 17.9901 155.395 17.652C154.884 17.3139 154.561 16.8201 154.425 16.1705L155.539 15.892C155.645 16.303 155.845 16.6113 156.14 16.8168C156.439 17.0223 156.828 17.125 157.309 17.125C157.856 17.125 158.29 17.009 158.611 16.777C158.936 16.5417 159.099 16.2599 159.099 15.9318C159.099 15.6667 159.006 15.4446 158.82 15.2656C158.635 15.0833 158.349 14.9474 157.965 14.858L156.692 14.5597C155.993 14.3939 155.479 14.1371 155.151 13.7891C154.826 13.4377 154.664 12.9986 154.664 12.4716C154.664 12.0407 154.785 11.6596 155.027 11.3281C155.272 10.9967 155.605 10.7365 156.026 10.5476C156.45 10.3587 156.931 10.2642 157.468 10.2642C158.224 10.2642 158.817 10.4299 159.248 10.7614C159.682 11.0928 159.99 11.5303 160.172 12.0739Z" fill="#252432"/>
<path d="M8 12.25L10.5 14.75L16 9.25M21 12C21 7.02944 16.9706 3 12 3C7.02944 3 3 7.02944 3 12C3 16.9706 7.02944 21 12 21C16.9706 21 21 16.9706 21 12Z" stroke="#252432" stroke-width="1.5" stroke-linecap="round" stroke-linejoin="round"/>
<path d="M44.9148 50.8182H46.1477V57.5597C46.1477 58.2557 45.9837 58.8771 45.6555 59.424C45.3307 59.9676 44.8717 60.3968 44.2784 60.7116C43.6851 61.0232 42.9891 61.179 42.1903 61.179C41.3916 61.179 40.6955 61.0232 40.1023 60.7116C39.509 60.3968 39.0483 59.9676 38.7202 59.424C38.3954 58.8771 38.233 58.2557 38.233 57.5597V50.8182H39.4659V57.4602C39.4659 57.9574 39.5753 58.3999 39.794 58.7876C40.0128 59.1721 40.3243 59.4754 40.7287 59.6974C41.1364 59.9162 41.6236 60.0256 42.1903 60.0256C42.7571 60.0256 43.2443 59.9162 43.652 59.6974C44.0597 59.4754 44.3712 59.1721 44.5866 58.7876C44.8054 58.3999 44.9148 57.9574 44.9148 57.4602V50.8182ZM49.6241 56.4062V61H48.4508V53.3636H49.5843V54.5568H49.6838C49.8627 54.169 50.1345 53.8575 50.4991 53.6222C50.8637 53.3835 51.3343 53.2642 51.911 53.2642C52.4281 53.2642 52.8805 53.3703 53.2683 53.5824C53.6561 53.7912 53.9577 54.1094 54.1731 54.5369C54.3886 54.9612 54.4963 55.4981 54.4963 56.1477V61H53.323V56.2273C53.323 55.6274 53.1672 55.16 52.8556 54.8253C52.5441 54.4872 52.1165 54.3182 51.573 54.3182C51.1984 54.3182 50.8637 54.3994 50.5687 54.5618C50.277 54.7242 50.0467 54.9612 49.8777 55.2727C49.7086 55.5843 49.6241 55.9621 49.6241 56.4062ZM57.8136 50.8182V61H56.6403V50.8182H57.8136ZM59.9625 61V53.3636H61.1358V61H59.9625ZM60.5591 52.0909C60.3304 52.0909 60.1332 52.013 59.9675 51.8572C59.8051 51.7015 59.7239 51.5142 59.7239 51.2955C59.7239 51.0767 59.8051 50.8894 59.9675 50.7337C60.1332 50.5779 60.3304 50.5 60.5591 50.5C60.7878 50.5 60.9834 50.5779 61.1458 50.7337C61.3115 50.8894 61.3944 51.0767 61.3944 51.2955C61.3944 51.5142 61.3115 51.7015 61.1458 51.8572C60.9834 52.013 60.7878 52.0909 60.5591 52.0909ZM63.2848 61V53.3636H64.4183V54.5568H64.5178C64.6768 54.1491 64.9337 53.8326 65.2884 53.6072C65.643 53.3786 66.0689 53.2642 66.5661 53.2642C67.0698 53.2642 67.4891 53.3786 67.8239 53.6072C68.1619 53.8326 68.4254 54.1491 68.6143 54.5568H68.6939C68.8894 54.1624 69.1828 53.8492 69.5739 53.6172C69.965 53.3819 70.4339 53.2642 70.9808 53.2642C71.6636 53.2642 72.2221 53.478 72.6562 53.9055C73.0904 54.3298 73.3075 54.991 73.3075 55.8892V61H72.1342V55.8892C72.1342 55.3258 71.9801 54.9231 71.6719 54.6811C71.3636 54.4392 71.0007 54.3182 70.5831 54.3182C70.0462 54.3182 69.6302 54.4806 69.3352 54.8054C69.0402 55.1269 68.8928 55.5346 68.8928 56.0284V61H67.6996V55.7699C67.6996 55.3357 67.5587 54.986 67.277 54.7209C66.9953 54.4524 66.6323 54.3182 66.1882 54.3182C65.8833 54.3182 65.5982 54.3994 65.3331 54.5618C65.0713 54.7242 64.8591 54.9496 64.6967 55.2379C64.5376 55.523 64.4581 55.8527 64.4581 56.2273V61H63.2848ZM75.4528 61V53.3636H76.6261V61H75.4528ZM76.0494 52.0909C75.8207 52.0909 75.6235 52.013 75.4577 51.8572C75.2953 51.7015 75.2141 51.5142 75.2141 51.2955C75.2141 51.0767 75.2953 50.8894 75.4577 50.7337C75.6235 50.5779 75.8207 50.5 76.0494 50.5C76.2781 50.5 76.4736 50.5779 76.636 50.7337C76.8017 50.8894 76.8846 51.0767 76.8846 51.2955C76.8846 51.5142 76.8017 51.7015 76.636 51.8572C76.4736 52.013 76.2781 52.0909 76.0494 52.0909ZM82.0961 53.3636V54.358H78.1387V53.3636H82.0961ZM79.2921 51.5341H80.4654V58.8125C80.4654 59.1439 80.5134 59.3925 80.6096 59.5582C80.709 59.7206 80.8349 59.83 80.9874 59.8864C81.1432 59.9394 81.3072 59.9659 81.4796 59.9659C81.6088 59.9659 81.7149 59.9593 81.7978 59.946C81.8806 59.9295 81.9469 59.9162 81.9966 59.9062L82.2353 60.9602C82.1557 60.9901 82.0447 61.0199 81.9022 61.0497C81.7596 61.0829 81.579 61.0994 81.3603 61.0994C81.0288 61.0994 80.704 61.0282 80.3858 60.8857C80.071 60.7431 79.8091 60.526 79.6003 60.2344C79.3948 59.9427 79.2921 59.5748 79.2921 59.1307V51.5341ZM86.9806 61.1591C86.2449 61.1591 85.6101 60.9967 85.0765 60.6719C84.5462 60.3438 84.1369 59.8864 83.8485 59.2997C83.5635 58.7098 83.421 58.0237 83.421 57.2415C83.421 56.4593 83.5635 55.7699 83.8485 55.1733C84.1369 54.5734 84.5379 54.1061 85.0517 53.7713C85.5687 53.4332 86.1719 53.2642 86.8613 53.2642C87.2591 53.2642 87.6518 53.3305 88.0396 53.4631C88.4274 53.5956 88.7804 53.8111 89.0985 54.1094C89.4167 54.4044 89.6703 54.7955 89.8592 55.2827C90.0481 55.7699 90.1426 56.3698 90.1426 57.0824V57.5795H84.2562V56.5653H88.9494C88.9494 56.1345 88.8632 55.75 88.6909 55.4119C88.5218 55.0739 88.2799 54.8071 87.965 54.6115C87.6535 54.416 87.2856 54.3182 86.8613 54.3182C86.394 54.3182 85.9896 54.4342 85.6483 54.6662C85.3102 54.8949 85.05 55.1932 84.8677 55.5611C84.6854 55.929 84.5943 56.3234 84.5943 56.7443V57.4205C84.5943 57.9972 84.6937 58.486 84.8926 58.8871C85.0948 59.2848 85.3748 59.5881 85.7328 59.7969C86.0907 60.0024 86.5067 60.1051 86.9806 60.1051C87.2889 60.1051 87.5673 60.062 87.8159 59.9759C88.0678 59.8864 88.2849 59.7538 88.4672 59.5781C88.6494 59.3991 88.7903 59.1771 88.8897 58.9119L90.0233 59.2301C89.9039 59.6146 89.7034 59.9527 89.4217 60.2443C89.14 60.5327 88.792 60.758 88.3777 60.9205C87.9634 61.0795 87.4977 61.1591 86.9806 61.1591ZM94.8109 61.1591C94.1745 61.1591 93.6127 60.9983 93.1255 60.6768C92.6383 60.352 92.2572 59.8946 91.9821 59.3047C91.707 58.7114 91.5694 58.0104 91.5694 57.2017C91.5694 56.3996 91.707 55.7036 91.9821 55.1136C92.2572 54.5237 92.64 54.0679 93.1305 53.7464C93.621 53.425 94.1878 53.2642 94.8308 53.2642C95.3279 53.2642 95.7207 53.3471 96.0091 53.5128C96.3007 53.6752 96.5228 53.8608 96.6752 54.0696C96.831 54.2751 96.952 54.4441 97.0382 54.5767H97.1376V50.8182H98.3109V61H97.1774V59.8267H97.0382C96.952 59.9659 96.8294 60.1416 96.6703 60.3537C96.5112 60.5625 96.2842 60.7498 95.9892 60.9155C95.6942 61.0779 95.3014 61.1591 94.8109 61.1591ZM94.97 60.1051C95.4406 60.1051 95.8384 59.9825 96.1632 59.7372C96.488 59.4886 96.7349 59.1456 96.9039 58.7081C97.073 58.2673 97.1575 57.7585 97.1575 57.1818C97.1575 56.6117 97.0746 56.1129 96.9089 55.6854C96.7432 55.2545 96.4979 54.9197 96.1731 54.6811C95.8483 54.4392 95.4473 54.3182 94.97 54.3182C94.4728 54.3182 94.0585 54.4458 93.7271 54.701C93.399 54.9529 93.152 55.2959 92.9863 55.7301C92.8239 56.161 92.7427 56.6449 92.7427 57.1818C92.7427 57.7254 92.8256 58.2192 92.9913 58.6634C93.1603 59.1042 93.4089 59.4555 93.737 59.7173C94.0685 59.9759 94.4795 60.1051 94.97 60.1051ZM104.56 61V53.3636H105.694V54.517H105.773C105.912 54.1392 106.164 53.8326 106.529 53.5973C106.894 53.362 107.305 53.2443 107.762 53.2443C107.848 53.2443 107.956 53.246 108.085 53.2493C108.214 53.2526 108.312 53.2576 108.378 53.2642V54.4574C108.339 54.4474 108.247 54.4325 108.105 54.4126C107.966 54.3894 107.818 54.3778 107.662 54.3778C107.291 54.3778 106.96 54.4557 106.668 54.6115C106.38 54.764 106.151 54.9761 105.982 55.2479C105.816 55.5163 105.733 55.8229 105.733 56.1676V61H104.56ZM112.738 61.1591C112.003 61.1591 111.368 60.9967 110.834 60.6719C110.304 60.3438 109.895 59.8864 109.606 59.2997C109.321 58.7098 109.179 58.0237 109.179 57.2415C109.179 56.4593 109.321 55.7699 109.606 55.1733C109.895 54.5734 110.296 54.1061 110.809 53.7713C111.327 53.4332 111.93 53.2642 112.619 53.2642C113.017 53.2642 113.41 53.3305 113.797 53.4631C114.185 53.5956 114.538 53.8111 114.856 54.1094C115.175 54.4044 115.428 54.7955 115.617 55.2827C115.806 55.7699 115.9 56.3698 115.9 57.0824V57.5795H110.014V56.5653H114.707C114.707 56.1345 114.621 55.75 114.449 55.4119C114.28 55.0739 114.038 54.8071 113.723 54.6115C113.411 54.416 113.043 54.3182 112.619 54.3182C112.152 54.3182 111.747 54.4342 111.406 54.6662C111.068 54.8949 110.808 55.1932 110.626 55.5611C110.443 55.929 110.352 56.3234 110.352 56.7443V57.4205C110.352 57.9972 110.452 58.486 110.65 58.8871C110.853 59.2848 111.133 59.5881 111.491 59.7969C111.849 60.0024 112.265 60.1051 112.738 60.1051C113.047 60.1051 113.325 60.062 113.574 59.9759C113.826 59.8864 114.043 59.7538 114.225 59.5781C114.407 59.3991 114.548 59.1771 114.648 58.9119L115.781 59.2301C115.662 59.6146 115.461 59.9527 115.18 60.2443C114.898 60.5327 114.55 60.758 114.135 60.9205C113.721 61.0795 113.256 61.1591 112.738 61.1591ZM122.895 63.8636V59.8267H122.796C122.71 59.9659 122.587 60.1416 122.428 60.3537C122.269 60.5625 122.042 60.7498 121.747 60.9155C121.452 61.0779 121.059 61.1591 120.569 61.1591C119.932 61.1591 119.371 60.9983 118.883 60.6768C118.396 60.352 118.015 59.8946 117.74 59.3047C117.465 58.7114 117.327 58.0104 117.327 57.2017C117.327 56.3996 117.465 55.7036 117.74 55.1136C118.015 54.5237 118.398 54.0679 118.888 53.7464C119.379 53.425 119.946 53.2642 120.589 53.2642C121.086 53.2642 121.479 53.3471 121.767 53.5128C122.059 53.6752 122.281 53.8608 122.433 54.0696C122.589 54.2751 122.71 54.4441 122.796 54.5767H122.935V53.3636H124.069V63.8636H122.895ZM120.728 60.1051C121.198 60.1051 121.596 59.9825 121.921 59.7372C122.246 59.4886 122.493 59.1456 122.662 58.7081C122.831 58.2673 122.915 57.7585 122.915 57.1818C122.915 56.6117 122.832 56.1129 122.667 55.6854C122.501 55.2545 122.256 54.9197 121.931 54.6811C121.606 54.4392 121.205 54.3182 120.728 54.3182C120.231 54.3182 119.816 54.4458 119.485 54.701C119.157 54.9529 118.91 55.2959 118.744 55.7301C118.582 56.161 118.501 56.6449 118.501 57.1818C118.501 57.7254 118.583 58.2192 118.749 58.6634C118.918 59.1042 119.167 59.4555 119.495 59.7173C119.826 59.9759 120.237 60.1051 120.728 60.1051ZM131.029 57.8778V53.3636H132.202V61H131.029V59.7074H130.949C130.77 60.0952 130.492 60.425 130.114 60.6967C129.736 60.9652 129.259 61.0994 128.682 61.0994C128.205 61.0994 127.781 60.995 127.41 60.7862C127.038 60.5741 126.747 60.2559 126.535 59.8317C126.323 59.4041 126.216 58.8655 126.216 58.2159V53.3636H127.39V58.1364C127.39 58.6932 127.546 59.1373 127.857 59.4688C128.172 59.8002 128.573 59.9659 129.06 59.9659C129.352 59.9659 129.648 59.8913 129.95 59.7422C130.255 59.593 130.51 59.3643 130.716 59.0561C130.925 58.7479 131.029 58.3551 131.029 57.8778ZM137.553 61.1591C136.817 61.1591 136.182 60.9967 135.649 60.6719C135.118 60.3438 134.709 59.8864 134.421 59.2997C134.136 58.7098 133.993 58.0237 133.993 57.2415C133.993 56.4593 134.136 55.7699 134.421 55.1733C134.709 54.5734 135.11 54.1061 135.624 53.7713C136.141 53.4332 136.744 53.2642 137.434 53.2642C137.831 53.2642 138.224 53.3305 138.612 53.4631C139 53.5956 139.353 53.8111 139.671 54.1094C139.989 54.4044 140.243 54.7955 140.431 55.2827C140.62 55.7699 140.715 56.3698 140.715 57.0824V57.5795H134.828V56.5653H139.522C139.522 56.1345 139.435 55.75 139.263 55.4119C139.094 55.0739 138.852 54.8071 138.537 54.6115C138.226 54.416 137.858 54.3182 137.434 54.3182C136.966 54.3182 136.562 54.4342 136.221 54.6662C135.882 54.8949 135.622 55.1932 135.44 55.5611C135.258 55.929 135.167 56.3234 135.167 56.7443V57.4205C135.167 57.9972 135.266 58.486 135.465 58.8871C135.667 59.2848 135.947 59.5881 136.305 59.7969C136.663 60.0024 137.079 60.1051 137.553 60.1051C137.861 60.1051 138.14 60.062 138.388 59.9759C138.64 59.8864 138.857 59.7538 139.039 59.5781C139.222 59.3991 139.363 59.1771 139.462 58.9119L140.596 59.2301C140.476 59.6146 140.276 59.9527 139.994 60.2443C139.712 60.5327 139.364 60.758 138.95 60.9205C138.536 61.0795 138.07 61.1591 137.553 61.1591ZM147.909 55.0739L146.855 55.3722C146.788 55.1965 146.691 55.0258 146.561 54.8601C146.435 54.6911 146.263 54.5518 146.044 54.4425C145.826 54.3331 145.546 54.2784 145.204 54.2784C144.737 54.2784 144.347 54.3861 144.036 54.6016C143.728 54.8137 143.574 55.0838 143.574 55.4119C143.574 55.7036 143.68 55.9339 143.892 56.103C144.104 56.272 144.435 56.4129 144.886 56.5256L146.02 56.804C146.702 56.9697 147.211 57.2232 147.546 57.5646C147.881 57.9027 148.048 58.3385 148.048 58.8722C148.048 59.3097 147.922 59.7008 147.67 60.0455C147.422 60.3902 147.074 60.6619 146.626 60.8608C146.179 61.0597 145.658 61.1591 145.065 61.1591C144.286 61.1591 143.641 60.9901 143.131 60.652C142.621 60.3139 142.297 59.8201 142.162 59.1705L143.275 58.892C143.381 59.303 143.582 59.6113 143.877 59.8168C144.175 60.0223 144.565 60.125 145.045 60.125C145.592 60.125 146.026 60.009 146.348 59.777C146.672 59.5417 146.835 59.2599 146.835 58.9318C146.835 58.6667 146.742 58.4446 146.556 58.2656C146.371 58.0833 146.086 57.9474 145.701 57.858L144.429 57.5597C143.729 57.3939 143.216 57.1371 142.887 56.7891C142.563 56.4377 142.4 55.9986 142.4 55.4716C142.4 55.0407 142.521 54.6596 142.763 54.3281C143.008 53.9967 143.342 53.7365 143.762 53.5476C144.187 53.3587 144.667 53.2642 145.204 53.2642C145.96 53.2642 146.553 53.4299 146.984 53.7614C147.418 54.0928 147.726 54.5303 147.909 55.0739ZM153.135 53.3636V54.358H149.178V53.3636H153.135ZM150.331 51.5341H151.504V58.8125C151.504 59.1439 151.552 59.3925 151.649 59.5582C151.748 59.7206 151.874 59.83 152.026 59.8864C152.182 59.9394 152.346 59.9659 152.519 59.9659C152.648 59.9659 152.754 59.9593 152.837 59.946C152.92 59.9295 152.986 59.9162 153.036 59.9062L153.274 60.9602C153.195 60.9901 153.084 61.0199 152.941 61.0497C152.799 61.0829 152.618 61.0994 152.399 61.0994C152.068 61.0994 151.743 61.0282 151.425 60.8857C151.11 60.7431 150.848 60.526 150.639 60.2344C150.434 59.9427 150.331 59.5748 150.331 59.1307V51.5341ZM160.172 55.0739L159.118 55.3722C159.052 55.1965 158.954 55.0258 158.825 54.8601C158.699 54.6911 158.527 54.5518 158.308 54.4425C158.089 54.3331 157.809 54.2784 157.468 54.2784C157.001 54.2784 156.611 54.3861 156.3 54.6016C155.991 54.8137 155.837 55.0838 155.837 55.4119C155.837 55.7036 155.943 55.9339 156.155 56.103C156.367 56.272 156.699 56.4129 157.15 56.5256L158.283 56.804C158.966 56.9697 159.475 57.2232 159.809 57.5646C160.144 57.9027 160.312 58.3385 160.312 58.8722C160.312 59.3097 160.186 59.7008 159.934 60.0455C159.685 60.3902 159.337 60.6619 158.89 60.8608C158.442 61.0597 157.922 61.1591 157.329 61.1591C156.55 61.1591 155.905 60.9901 155.395 60.652C154.884 60.3139 154.561 59.8201 154.425 59.1705L155.539 58.892C155.645 59.303 155.845 59.6113 156.14 59.8168C156.439 60.0223 156.828 60.125 157.309 60.125C157.856 60.125 158.29 60.009 158.611 59.777C158.936 59.5417 159.099 59.2599 159.099 58.9318C159.099 58.6667 159.006 58.4446 158.82 58.2656C158.635 58.0833 158.349 57.9474 157.965 57.858L156.692 57.5597C155.993 57.3939 155.479 57.1371 155.151 56.7891C154.826 56.4377 154.664 55.9986 154.664 55.4716C154.664 55.0407 154.785 54.6596 155.027 54.3281C155.272 53.9967 155.605 53.7365 156.026 53.5476C156.45 53.3587 156.931 53.2642 157.468 53.2642C158.224 53.2642 158.817 53.4299 159.248 53.7614C159.682 54.0928 159.99 54.5303 160.172 55.0739Z" fill="#252432"/>
<path d="M8 55.25L10.5 57.75L16 52.25M21 55C21 50.0294 16.9706 46 12 46C7.02944 46 3 50.0294 3 55C3 59.9706 7.02944 64 12 64C16.9706 64 21 59.9706 21 55Z" stroke="#252432" stroke-width="1.5" stroke-linecap="round" stroke-linejoin="round"/>
<path d="M44.9148 93.8182H46.1477V100.56C46.1477 101.256 45.9837 101.877 45.6555 102.424C45.3307 102.968 44.8717 103.397 44.2784 103.712C43.6851 104.023 42.9891 104.179 42.1903 104.179C41.3916 104.179 40.6955 104.023 40.1023 103.712C39.509 103.397 39.0483 102.968 38.7202 102.424C38.3954 101.877 38.233 101.256 38.233 100.56V93.8182H39.4659V100.46C39.4659 100.957 39.5753 101.4 39.794 101.788C40.0128 102.172 40.3243 102.475 40.7287 102.697C41.1364 102.916 41.6236 103.026 42.1903 103.026C42.7571 103.026 43.2443 102.916 43.652 102.697C44.0597 102.475 44.3712 102.172 44.5866 101.788C44.8054 101.4 44.9148 100.957 44.9148 100.46V93.8182ZM49.6241 99.4062V104H48.4508V96.3636H49.5843V97.5568H49.6838C49.8627 97.169 50.1345 96.8575 50.4991 96.6222C50.8637 96.3835 51.3343 96.2642 51.911 96.2642C52.4281 96.2642 52.8805 96.3703 53.2683 96.5824C53.6561 96.7912 53.9577 97.1094 54.1731 97.5369C54.3886 97.9612 54.4963 98.4981 54.4963 99.1477V104H53.323V99.2273C53.323 98.6274 53.1672 98.16 52.8556 97.8253C52.5441 97.4872 52.1165 97.3182 51.573 97.3182C51.1984 97.3182 50.8637 97.3994 50.5687 97.5618C50.277 97.7242 50.0467 97.9612 49.8777 98.2727C49.7086 98.5843 49.6241 98.9621 49.6241 99.4062ZM57.8136 93.8182V104H56.6403V93.8182H57.8136ZM59.9625 104V96.3636H61.1358V104H59.9625ZM60.5591 95.0909C60.3304 95.0909 60.1332 95.013 59.9675 94.8572C59.8051 94.7015 59.7239 94.5142 59.7239 94.2955C59.7239 94.0767 59.8051 93.8894 59.9675 93.7337C60.1332 93.5779 60.3304 93.5 60.5591 93.5C60.7878 93.5 60.9834 93.5779 61.1458 93.7337C61.3115 93.8894 61.3944 94.0767 61.3944 94.2955C61.3944 94.5142 61.3115 94.7015 61.1458 94.8572C60.9834 95.013 60.7878 95.0909 60.5591 95.0909ZM63.2848 104V96.3636H64.4183V97.5568H64.5178C64.6768 97.1491 64.9337 96.8326 65.2884 96.6072C65.643 96.3786 66.0689 96.2642 66.5661 96.2642C67.0698 96.2642 67.4891 96.3786 67.8239 96.6072C68.1619 96.8326 68.4254 97.1491 68.6143 97.5568H68.6939C68.8894 97.1624 69.1828 96.8492 69.5739 96.6172C69.965 96.3819 70.4339 96.2642 70.9808 96.2642C71.6636 96.2642 72.2221 96.478 72.6562 96.9055C73.0904 97.3298 73.3075 97.991 73.3075 98.8892V104H72.1342V98.8892C72.1342 98.3258 71.9801 97.9231 71.6719 97.6811C71.3636 97.4392 71.0007 97.3182 70.5831 97.3182C70.0462 97.3182 69.6302 97.4806 69.3352 97.8054C69.0402 98.1269 68.8928 98.5346 68.8928 99.0284V104H67.6996V98.7699C67.6996 98.3357 67.5587 97.986 67.277 97.7209C66.9953 97.4524 66.6323 97.3182 66.1882 97.3182C65.8833 97.3182 65.5982 97.3994 65.3331 97.5618C65.0713 97.7242 64.8591 97.9496 64.6967 98.2379C64.5376 98.523 64.4581 98.8527 64.4581 99.2273V104H63.2848ZM75.4528 104V96.3636H76.6261V104H75.4528ZM76.0494 95.0909C75.8207 95.0909 75.6235 95.013 75.4577 94.8572C75.2953 94.7015 75.2141 94.5142 75.2141 94.2955C75.2141 94.0767 75.2953 93.8894 75.4577 93.7337C75.6235 93.5779 75.8207 93.5 76.0494 93.5C76.2781 93.5 76.4736 93.5779 76.636 93.7337C76.8017 93.8894 76.8846 94.0767 76.8846 94.2955C76.8846 94.5142 76.8017 94.7015 76.636 94.8572C76.4736 95.013 76.2781 95.0909 76.0494 95.0909ZM82.0961 96.3636V97.358H78.1387V96.3636H82.0961ZM79.2921 94.5341H80.4654V101.812C80.4654 102.144 80.5134 102.393 80.6096 102.558C80.709 102.721 80.8349 102.83 80.9874 102.886C81.1432 102.939 81.3072 102.966 81.4796 102.966C81.6088 102.966 81.7149 102.959 81.7978 102.946C81.8806 102.929 81.9469 102.916 81.9966 102.906L82.2353 103.96C82.1557 103.99 82.0447 104.02 81.9022 104.05C81.7596 104.083 81.579 104.099 81.3603 104.099C81.0288 104.099 80.704 104.028 80.3858 103.886C80.071 103.743 79.8091 103.526 79.6003 103.234C79.3948 102.943 79.2921 102.575 79.2921 102.131V94.5341ZM86.9806 104.159C86.2449 104.159 85.6101 103.997 85.0765 103.672C84.5462 103.344 84.1369 102.886 83.8485 102.3C83.5635 101.71 83.421 101.024 83.421 100.241C83.421 99.4593 83.5635 98.7699 83.8485 98.1733C84.1369 97.5734 84.5379 97.1061 85.0517 96.7713C85.5687 96.4332 86.1719 96.2642 86.8613 96.2642C87.2591 96.2642 87.6518 96.3305 88.0396 96.4631C88.4274 96.5956 88.7804 96.8111 89.0985 97.1094C89.4167 97.4044 89.6703 97.7955 89.8592 98.2827C90.0481 98.7699 90.1426 99.3698 90.1426 100.082V100.58H84.2562V99.5653H88.9494C88.9494 99.1345 88.8632 98.75 88.6909 98.4119C88.5218 98.0739 88.2799 97.8071 87.965 97.6115C87.6535 97.416 87.2856 97.3182 86.8613 97.3182C86.394 97.3182 85.9896 97.4342 85.6483 97.6662C85.3102 97.8949 85.05 98.1932 84.8677 98.5611C84.6854 98.929 84.5943 99.3234 84.5943 99.7443V100.42C84.5943 100.997 84.6937 101.486 84.8926 101.887C85.0948 102.285 85.3748 102.588 85.7328 102.797C86.0907 103.002 86.5067 103.105 86.9806 103.105C87.2889 103.105 87.5673 103.062 87.8159 102.976C88.0678 102.886 88.2849 102.754 88.4672 102.578C88.6494 102.399 88.7903 102.177 88.8897 101.912L90.0233 102.23C89.9039 102.615 89.7034 102.953 89.4217 103.244C89.14 103.533 88.792 103.758 88.3777 103.92C87.9634 104.08 87.4977 104.159 86.9806 104.159ZM94.8109 104.159C94.1745 104.159 93.6127 103.998 93.1255 103.677C92.6383 103.352 92.2572 102.895 91.9821 102.305C91.707 101.711 91.5694 101.01 91.5694 100.202C91.5694 99.3996 91.707 98.7036 91.9821 98.1136C92.2572 97.5237 92.64 97.0679 93.1305 96.7464C93.621 96.425 94.1878 96.2642 94.8308 96.2642C95.3279 96.2642 95.7207 96.3471 96.0091 96.5128C96.3007 96.6752 96.5228 96.8608 96.6752 97.0696C96.831 97.2751 96.952 97.4441 97.0382 97.5767H97.1376V93.8182H98.3109V104H97.1774V102.827H97.0382C96.952 102.966 96.8294 103.142 96.6703 103.354C96.5112 103.562 96.2842 103.75 95.9892 103.915C95.6942 104.078 95.3014 104.159 94.8109 104.159ZM94.97 103.105C95.4406 103.105 95.8384 102.982 96.1632 102.737C96.488 102.489 96.7349 102.146 96.9039 101.708C97.073 101.267 97.1575 100.759 97.1575 100.182C97.1575 99.6117 97.0746 99.1129 96.9089 98.6854C96.7432 98.2545 96.4979 97.9197 96.1731 97.6811C95.8483 97.4392 95.4473 97.3182 94.97 97.3182C94.4728 97.3182 94.0585 97.4458 93.7271 97.701C93.399 97.9529 93.152 98.2959 92.9863 98.7301C92.8239 99.161 92.7427 99.6449 92.7427 100.182C92.7427 100.725 92.8256 101.219 92.9913 101.663C93.1603 102.104 93.4089 102.455 93.737 102.717C94.0685 102.976 94.4795 103.105 94.97 103.105ZM104.56 104V96.3636H105.694V97.517H105.773C105.912 97.1392 106.164 96.8326 106.529 96.5973C106.894 96.362 107.305 96.2443 107.762 96.2443C107.848 96.2443 107.956 96.246 108.085 96.2493C108.214 96.2526 108.312 96.2576 108.378 96.2642V97.4574C108.339 97.4474 108.247 97.4325 108.105 97.4126C107.966 97.3894 107.818 97.3778 107.662 97.3778C107.291 97.3778 106.96 97.4557 106.668 97.6115C106.38 97.764 106.151 97.9761 105.982 98.2479C105.816 98.5163 105.733 98.8229 105.733 99.1676V104H104.56ZM112.738 104.159C112.003 104.159 111.368 103.997 110.834 103.672C110.304 103.344 109.895 102.886 109.606 102.3C109.321 101.71 109.179 101.024 109.179 100.241C109.179 99.4593 109.321 98.7699 109.606 98.1733C109.895 97.5734 110.296 97.1061 110.809 96.7713C111.327 96.4332 111.93 96.2642 112.619 96.2642C113.017 96.2642 113.41 96.3305 113.797 96.4631C114.185 96.5956 114.538 96.8111 114.856 97.1094C115.175 97.4044 115.428 97.7955 115.617 98.2827C115.806 98.7699 115.9 99.3698 115.9 100.082V100.58H110.014V99.5653H114.707C114.707 99.1345 114.621 98.75 114.449 98.4119C114.28 98.0739 114.038 97.8071 113.723 97.6115C113.411 97.416 113.043 97.3182 112.619 97.3182C112.152 97.3182 111.747 97.4342 111.406 97.6662C111.068 97.8949 110.808 98.1932 110.626 98.5611C110.443 98.929 110.352 99.3234 110.352 99.7443V100.42C110.352 100.997 110.452 101.486 110.65 101.887C110.853 102.285 111.133 102.588 111.491 102.797C111.849 103.002 112.265 103.105 112.738 103.105C113.047 103.105 113.325 103.062 113.574 102.976C113.826 102.886 114.043 102.754 114.225 102.578C114.407 102.399 114.548 102.177 114.648 101.912L115.781 102.23C115.662 102.615 115.461 102.953 115.18 103.244C114.898 103.533 114.55 103.758 114.135 103.92C113.721 104.08 113.256 104.159 112.738 104.159ZM122.895 106.864V102.827H122.796C122.71 102.966 122.587 103.142 122.428 103.354C122.269 103.562 122.042 103.75 121.747 103.915C121.452 104.078 121.059 104.159 120.569 104.159C119.932 104.159 119.371 103.998 118.883 103.677C118.396 103.352 118.015 102.895 117.74 102.305C117.465 101.711 117.327 101.01 117.327 100.202C117.327 99.3996 117.465 98.7036 117.74 98.1136C118.015 97.5237 118.398 97.0679 118.888 96.7464C119.379 96.425 119.946 96.2642 120.589 96.2642C121.086 96.2642 121.479 96.3471 121.767 96.5128C122.059 96.6752 122.281 96.8608 122.433 97.0696C122.589 97.2751 122.71 97.4441 122.796 97.5767H122.935V96.3636H124.069V106.864H122.895ZM120.728 103.105C121.198 103.105 121.596 102.982 121.921 102.737C122.246 102.489 122.493 102.146 122.662 101.708C122.831 101.267 122.915 100.759 122.915 100.182C122.915 99.6117 122.832 99.1129 122.667 98.6854C122.501 98.2545 122.256 97.9197 121.931 97.6811C121.606 97.4392 121.205 97.3182 120.728 97.3182C120.231 97.3182 119.816 97.4458 119.485 97.701C119.157 97.9529 118.91 98.2959 118.744 98.7301C118.582 99.161 118.501 99.6449 118.501 100.182C118.501 100.725 118.583 101.219 118.749 101.663C118.918 102.104 119.167 102.455 119.495 102.717C119.826 102.976 120.237 103.105 120.728 103.105ZM131.029 100.878V96.3636H132.202V104H131.029V102.707H130.949C130.77 103.095 130.492 103.425 130.114 103.697C129.736 103.965 129.259 104.099 128.682 104.099C128.205 104.099 127.781 103.995 127.41 103.786C127.038 103.574 126.747 103.256 126.535 102.832C126.323 102.404 126.216 101.866 126.216 101.216V96.3636H127.39V101.136C127.39 101.693 127.546 102.137 127.857 102.469C128.172 102.8 128.573 102.966 129.06 102.966C129.352 102.966 129.648 102.891 129.95 102.742C130.255 102.593 130.51 102.364 130.716 102.056C130.925 101.748 131.029 101.355 131.029 100.878ZM137.553 104.159C136.817 104.159 136.182 103.997 135.649 103.672C135.118 103.344 134.709 102.886 134.421 102.3C134.136 101.71 133.993 101.024 133.993 100.241C133.993 99.4593 134.136 98.7699 134.421 98.1733C134.709 97.5734 135.11 97.1061 135.624 96.7713C136.141 96.4332 136.744 96.2642 137.434 96.2642C137.831 96.2642 138.224 96.3305 138.612 96.4631C139 96.5956 139.353 96.8111 139.671 97.1094C139.989 97.4044 140.243 97.7955 140.431 98.2827C140.62 98.7699 140.715 99.3698 140.715 100.082V100.58H134.828V99.5653H139.522C139.522 99.1345 139.435 98.75 139.263 98.4119C139.094 98.0739 138.852 97.8071 138.537 97.6115C138.226 97.416 137.858 97.3182 137.434 97.3182C136.966 97.3182 136.562 97.4342 136.221 97.6662C135.882 97.8949 135.622 98.1932 135.44 98.5611C135.258 98.929 135.167 99.3234 135.167 99.7443V100.42C135.167 100.997 135.266 101.486 135.465 101.887C135.667 102.285 135.947 102.588 136.305 102.797C136.663 103.002 137.079 103.105 137.553 103.105C137.861 103.105 138.14 103.062 138.388 102.976C138.64 102.886 138.857 102.754 139.039 102.578C139.222 102.399 139.363 102.177 139.462 101.912L140.596 102.23C140.476 102.615 140.276 102.953 139.994 103.244C139.712 103.533 139.364 103.758 138.95 103.92C138.536 104.08 138.07 104.159 137.553 104.159ZM147.909 98.0739L146.855 98.3722C146.788 98.1965 146.691 98.0258 146.561 97.8601C146.435 97.6911 146.263 97.5518 146.044 97.4425C145.826 97.3331 145.546 97.2784 145.204 97.2784C144.737 97.2784 144.347 97.3861 144.036 97.6016C143.728 97.8137 143.574 98.0838 143.574 98.4119C143.574 98.7036 143.68 98.9339 143.892 99.103C144.104 99.272 144.435 99.4129 144.886 99.5256L146.02 99.804C146.702 99.9697 147.211 100.223 147.546 100.565C147.881 100.903 148.048 101.339 148.048 101.872C148.048 102.31 147.922 102.701 147.67 103.045C147.422 103.39 147.074 103.662 146.626 103.861C146.179 104.06 145.658 104.159 145.065 104.159C144.286 104.159 143.641 103.99 143.131 103.652C142.621 103.314 142.297 102.82 142.162 102.17L143.275 101.892C143.381 102.303 143.582 102.611 143.877 102.817C144.175 103.022 144.565 103.125 145.045 103.125C145.592 103.125 146.026 103.009 146.348 102.777C146.672 102.542 146.835 102.26 146.835 101.932C146.835 101.667 146.742 101.445 146.556 101.266C146.371 101.083 146.086 100.947 145.701 100.858L144.429 100.56C143.729 100.394 143.216 100.137 142.887 99.7891C142.563 99.4377 142.4 98.9986 142.4 98.4716C142.4 98.0407 142.521 97.6596 142.763 97.3281C143.008 96.9967 143.342 96.7365 143.762 96.5476C144.187 96.3587 144.667 96.2642 145.204 96.2642C145.96 96.2642 146.553 96.4299 146.984 96.7614C147.418 97.0928 147.726 97.5303 147.909 98.0739ZM153.135 96.3636V97.358H149.178V96.3636H153.135ZM150.331 94.5341H151.504V101.812C151.504 102.144 151.552 102.393 151.649 102.558C151.748 102.721 151.874 102.83 152.026 102.886C152.182 102.939 152.346 102.966 152.519 102.966C152.648 102.966 152.754 102.959 152.837 102.946C152.92 102.929 152.986 102.916 153.036 102.906L153.274 103.96C153.195 103.99 153.084 104.02 152.941 104.05C152.799 104.083 152.618 104.099 152.399 104.099C152.068 104.099 151.743 104.028 151.425 103.886C151.11 103.743 150.848 103.526 150.639 103.234C150.434 102.943 150.331 102.575 150.331 102.131V94.5341ZM160.172 98.0739L159.118 98.3722C159.052 98.1965 158.954 98.0258 158.825 97.8601C158.699 97.6911 158.527 97.5518 158.308 97.4425C158.089 97.3331 157.809 97.2784 157.468 97.2784C157.001 97.2784 156.611 97.3861 156.3 97.6016C155.991 97.8137 155.837 98.0838 155.837 98.4119C155.837 98.7036 155.943 98.9339 156.155 99.103C156.367 99.272 156.699 99.4129 157.15 99.5256L158.283 99.804C158.966 99.9697 159.475 100.223 159.809 100.565C160.144 100.903 160.312 101.339 160.312 101.872C160.312 102.31 160.186 102.701 159.934 103.045C159.685 103.39 159.337 103.662 158.89 103.861C158.442 104.06 157.922 104.159 157.329 104.159C156.55 104.159 155.905 103.99 155.395 103.652C154.884 103.314 154.561 102.82 154.425 102.17L155.539 101.892C155.645 102.303 155.845 102.611 156.14 102.817C156.439 103.022 156.828 103.125 157.309 103.125C157.856 103.125 158.29 103.009 158.611 102.777C158.936 102.542 159.099 102.26 159.099 101.932C159.099 101.667 159.006 101.445 158.82 101.266C158.635 101.083 158.349 100.947 157.965 100.858L156.692 100.56C155.993 100.394 155.479 100.137 155.151 99.7891C154.826 99.4377 154.664 98.9986 154.664 98.4716C154.664 98.0407 154.785 97.6596 155.027 97.3281C155.272 96.9967 155.605 96.7365 156.026 96.5476C156.45 96.3587 156.931 96.2642 157.468 96.2642C158.224 96.2642 158.817 96.4299 159.248 96.7614C159.682 97.0928 159.99 97.5303 160.172 98.0739Z" fill="#252432"/>
<path d="M8 98.25L10.5 100.75L16 95.25M21 98C21 93.0294 16.9706 89 12 89C7.02944 89 3 93.0294 3 98C3 102.971 7.02944 107 12 107C16.9706 107 21 102.971 21 98Z" stroke="#252432" stroke-width="1.5" stroke-linecap="round" stroke-linejoin="round"/>
<path d="M325.915 7.81818H327.148V14.5597C327.148 15.2557 326.984 15.8771 326.656 16.424C326.331 16.9676 325.872 17.3968 325.278 17.7116C324.685 18.0232 323.989 18.179 323.19 18.179C322.392 18.179 321.696 18.0232 321.102 17.7116C320.509 17.3968 320.048 16.9676 319.72 16.424C319.395 15.8771 319.233 15.2557 319.233 14.5597V7.81818H320.466V14.4602C320.466 14.9574 320.575 15.3999 320.794 15.7876C321.013 16.1721 321.324 16.4754 321.729 16.6974C322.136 16.9162 322.624 17.0256 323.19 17.0256C323.757 17.0256 324.244 16.9162 324.652 16.6974C325.06 16.4754 325.371 16.1721 325.587 15.7876C325.805 15.3999 325.915 14.9574 325.915 14.4602V7.81818ZM330.624 13.4062V18H329.451V10.3636H330.584V11.5568H330.684C330.863 11.169 331.135 10.8575 331.499 10.6222C331.864 10.3835 332.334 10.2642 332.911 10.2642C333.428 10.2642 333.881 10.3703 334.268 10.5824C334.656 10.7912 334.958 11.1094 335.173 11.5369C335.389 11.9612 335.496 12.4981 335.496 13.1477V18H334.323V13.2273C334.323 12.6274 334.167 12.16 333.856 11.8253C333.544 11.4872 333.117 11.3182 332.573 11.3182C332.198 11.3182 331.864 11.3994 331.569 11.5618C331.277 11.7242 331.047 11.9612 330.878 12.2727C330.709 12.5843 330.624 12.9621 330.624 13.4062ZM338.814 7.81818V18H337.64V7.81818H338.814ZM340.963 18V10.3636H342.136V18H340.963ZM341.559 9.09091C341.33 9.09091 341.133 9.01302 340.968 8.85724C340.805 8.70147 340.724 8.5142 340.724 8.29545C340.724 8.0767 340.805 7.88944 340.968 7.73366C341.133 7.57789 341.33 7.5 341.559 7.5C341.788 7.5 341.983 7.57789 342.146 7.73366C342.311 7.88944 342.394 8.0767 342.394 8.29545C342.394 8.5142 342.311 8.70147 342.146 8.85724C341.983 9.01302 341.788 9.09091 341.559 9.09091ZM344.285 18V10.3636H345.418V11.5568H345.518C345.677 11.1491 345.934 10.8326 346.288 10.6072C346.643 10.3786 347.069 10.2642 347.566 10.2642C348.07 10.2642 348.489 10.3786 348.824 10.6072C349.162 10.8326 349.425 11.1491 349.614 11.5568H349.694C349.889 11.1624 350.183 10.8492 350.574 10.6172C350.965 10.3819 351.434 10.2642 351.981 10.2642C352.664 10.2642 353.222 10.478 353.656 10.9055C354.09 11.3298 354.308 11.991 354.308 12.8892V18H353.134V12.8892C353.134 12.3258 352.98 11.9231 352.672 11.6811C352.364 11.4392 352.001 11.3182 351.583 11.3182C351.046 11.3182 350.63 11.4806 350.335 11.8054C350.04 12.1269 349.893 12.5346 349.893 13.0284V18H348.7V12.7699C348.7 12.3357 348.559 11.986 348.277 11.7209C347.995 11.4524 347.632 11.3182 347.188 11.3182C346.883 11.3182 346.598 11.3994 346.333 11.5618C346.071 11.7242 345.859 11.9496 345.697 12.2379C345.538 12.523 345.458 12.8527 345.458 13.2273V18H344.285ZM356.453 18V10.3636H357.626V18H356.453ZM357.049 9.09091C356.821 9.09091 356.623 9.01302 356.458 8.85724C356.295 8.70147 356.214 8.5142 356.214 8.29545C356.214 8.0767 356.295 7.88944 356.458 7.73366C356.623 7.57789 356.821 7.5 357.049 7.5C357.278 7.5 357.474 7.57789 357.636 7.73366C357.802 7.88944 357.885 8.0767 357.885 8.29545C357.885 8.5142 357.802 8.70147 357.636 8.85724C357.474 9.01302 357.278 9.09091 357.049 9.09091ZM363.096 10.3636V11.358H359.139V10.3636H363.096ZM360.292 8.53409H361.465V15.8125C361.465 16.1439 361.513 16.3925 361.61 16.5582C361.709 16.7206 361.835 16.83 361.987 16.8864C362.143 16.9394 362.307 16.9659 362.48 16.9659C362.609 16.9659 362.715 16.9593 362.798 16.946C362.881 16.9295 362.947 16.9162 362.997 16.9062L363.235 17.9602C363.156 17.9901 363.045 18.0199 362.902 18.0497C362.76 18.0829 362.579 18.0994 362.36 18.0994C362.029 18.0994 361.704 18.0282 361.386 17.8857C361.071 17.7431 360.809 17.526 360.6 17.2344C360.395 16.9427 360.292 16.5748 360.292 16.1307V8.53409ZM367.981 18.1591C367.245 18.1591 366.61 17.9967 366.077 17.6719C365.546 17.3438 365.137 16.8864 364.849 16.2997C364.564 15.7098 364.421 15.0237 364.421 14.2415C364.421 13.4593 364.564 12.7699 364.849 12.1733C365.137 11.5734 365.538 11.1061 366.052 10.7713C366.569 10.4332 367.172 10.2642 367.861 10.2642C368.259 10.2642 368.652 10.3305 369.04 10.4631C369.427 10.5956 369.78 10.8111 370.099 11.1094C370.417 11.4044 370.67 11.7955 370.859 12.2827C371.048 12.7699 371.143 13.3698 371.143 14.0824V14.5795H365.256V13.5653H369.949C369.949 13.1345 369.863 12.75 369.691 12.4119C369.522 12.0739 369.28 11.8071 368.965 11.6115C368.653 11.416 368.286 11.3182 367.861 11.3182C367.394 11.3182 366.99 11.4342 366.648 11.6662C366.31 11.8949 366.05 12.1932 365.868 12.5611C365.685 12.929 365.594 13.3234 365.594 13.7443V14.4205C365.594 14.9972 365.694 15.486 365.893 15.8871C366.095 16.2848 366.375 16.5881 366.733 16.7969C367.091 17.0024 367.507 17.1051 367.981 17.1051C368.289 17.1051 368.567 17.062 368.816 16.9759C369.068 16.8864 369.285 16.7538 369.467 16.5781C369.649 16.3991 369.79 16.1771 369.89 15.9119L371.023 16.2301C370.904 16.6146 370.703 16.9527 370.422 17.2443C370.14 17.5327 369.792 17.758 369.378 17.9205C368.963 18.0795 368.498 18.1591 367.981 18.1591ZM375.811 18.1591C375.175 18.1591 374.613 17.9983 374.126 17.6768C373.638 17.352 373.257 16.8946 372.982 16.3047C372.707 15.7114 372.569 15.0104 372.569 14.2017C372.569 13.3996 372.707 12.7036 372.982 12.1136C373.257 11.5237 373.64 11.0679 374.131 10.7464C374.621 10.425 375.188 10.2642 375.831 10.2642C376.328 10.2642 376.721 10.3471 377.009 10.5128C377.301 10.6752 377.523 10.8608 377.675 11.0696C377.831 11.2751 377.952 11.4441 378.038 11.5767H378.138V7.81818H379.311V18H378.177V16.8267H378.038C377.952 16.9659 377.829 17.1416 377.67 17.3537C377.511 17.5625 377.284 17.7498 376.989 17.9155C376.694 18.0779 376.301 18.1591 375.811 18.1591ZM375.97 17.1051C376.441 17.1051 376.838 16.9825 377.163 16.7372C377.488 16.4886 377.735 16.1456 377.904 15.7081C378.073 15.2673 378.157 14.7585 378.157 14.1818C378.157 13.6117 378.075 13.1129 377.909 12.6854C377.743 12.2545 377.498 11.9197 377.173 11.6811C376.848 11.4392 376.447 11.3182 375.97 11.3182C375.473 11.3182 375.059 11.4458 374.727 11.701C374.399 11.9529 374.152 12.2959 373.986 12.7301C373.824 13.161 373.743 13.6449 373.743 14.1818C373.743 14.7254 373.826 15.2192 373.991 15.6634C374.16 16.1042 374.409 16.4555 374.737 16.7173C375.068 16.9759 375.479 17.1051 375.97 17.1051ZM385.56 18V10.3636H386.694V11.517H386.773C386.912 11.1392 387.164 10.8326 387.529 10.5973C387.894 10.362 388.305 10.2443 388.762 10.2443C388.848 10.2443 388.956 10.246 389.085 10.2493C389.214 10.2526 389.312 10.2576 389.378 10.2642V11.4574C389.339 11.4474 389.247 11.4325 389.105 11.4126C388.966 11.3894 388.818 11.3778 388.662 11.3778C388.291 11.3778 387.96 11.4557 387.668 11.6115C387.38 11.764 387.151 11.9761 386.982 12.2479C386.816 12.5163 386.733 12.8229 386.733 13.1676V18H385.56ZM393.738 18.1591C393.003 18.1591 392.368 17.9967 391.834 17.6719C391.304 17.3438 390.895 16.8864 390.606 16.2997C390.321 15.7098 390.179 15.0237 390.179 14.2415C390.179 13.4593 390.321 12.7699 390.606 12.1733C390.895 11.5734 391.296 11.1061 391.809 10.7713C392.327 10.4332 392.93 10.2642 393.619 10.2642C394.017 10.2642 394.41 10.3305 394.797 10.4631C395.185 10.5956 395.538 10.8111 395.856 11.1094C396.175 11.4044 396.428 11.7955 396.617 12.2827C396.806 12.7699 396.9 13.3698 396.9 14.0824V14.5795H391.014V13.5653H395.707C395.707 13.1345 395.621 12.75 395.449 12.4119C395.28 12.0739 395.038 11.8071 394.723 11.6115C394.411 11.416 394.043 11.3182 393.619 11.3182C393.152 11.3182 392.747 11.4342 392.406 11.6662C392.068 11.8949 391.808 12.1932 391.626 12.5611C391.443 12.929 391.352 13.3234 391.352 13.7443V14.4205C391.352 14.9972 391.452 15.486 391.65 15.8871C391.853 16.2848 392.133 16.5881 392.491 16.7969C392.849 17.0024 393.265 17.1051 393.738 17.1051C394.047 17.1051 394.325 17.062 394.574 16.9759C394.826 16.8864 395.043 16.7538 395.225 16.5781C395.407 16.3991 395.548 16.1771 395.648 15.9119L396.781 16.2301C396.662 16.6146 396.461 16.9527 396.18 17.2443C395.898 17.5327 395.55 17.758 395.135 17.9205C394.721 18.0795 394.256 18.1591 393.738 18.1591ZM403.895 20.8636V16.8267H403.796C403.71 16.9659 403.587 17.1416 403.428 17.3537C403.269 17.5625 403.042 17.7498 402.747 17.9155C402.452 18.0779 402.059 18.1591 401.569 18.1591C400.932 18.1591 400.371 17.9983 399.883 17.6768C399.396 17.352 399.015 16.8946 398.74 16.3047C398.465 15.7114 398.327 15.0104 398.327 14.2017C398.327 13.3996 398.465 12.7036 398.74 12.1136C399.015 11.5237 399.398 11.0679 399.888 10.7464C400.379 10.425 400.946 10.2642 401.589 10.2642C402.086 10.2642 402.479 10.3471 402.767 10.5128C403.059 10.6752 403.281 10.8608 403.433 11.0696C403.589 11.2751 403.71 11.4441 403.796 11.5767H403.935V10.3636H405.069V20.8636H403.895ZM401.728 17.1051C402.198 17.1051 402.596 16.9825 402.921 16.7372C403.246 16.4886 403.493 16.1456 403.662 15.7081C403.831 15.2673 403.915 14.7585 403.915 14.1818C403.915 13.6117 403.832 13.1129 403.667 12.6854C403.501 12.2545 403.256 11.9197 402.931 11.6811C402.606 11.4392 402.205 11.3182 401.728 11.3182C401.231 11.3182 400.816 11.4458 400.485 11.701C400.157 11.9529 399.91 12.2959 399.744 12.7301C399.582 13.161 399.501 13.6449 399.501 14.1818C399.501 14.7254 399.583 15.2192 399.749 15.6634C399.918 16.1042 400.167 16.4555 400.495 16.7173C400.826 16.9759 401.237 17.1051 401.728 17.1051ZM412.029 14.8778V10.3636H413.202V18H412.029V16.7074H411.949C411.77 17.0952 411.492 17.425 411.114 17.6967C410.736 17.9652 410.259 18.0994 409.682 18.0994C409.205 18.0994 408.781 17.995 408.41 17.7862C408.038 17.5741 407.747 17.2559 407.535 16.8317C407.323 16.4041 407.216 15.8655 407.216 15.2159V10.3636H408.39V15.1364C408.39 15.6932 408.546 16.1373 408.857 16.4688C409.172 16.8002 409.573 16.9659 410.06 16.9659C410.352 16.9659 410.648 16.8913 410.95 16.7422C411.255 16.593 411.51 16.3643 411.716 16.0561C411.925 15.7479 412.029 15.3551 412.029 14.8778ZM418.553 18.1591C417.817 18.1591 417.182 17.9967 416.649 17.6719C416.118 17.3438 415.709 16.8864 415.421 16.2997C415.136 15.7098 414.993 15.0237 414.993 14.2415C414.993 13.4593 415.136 12.7699 415.421 12.1733C415.709 11.5734 416.11 11.1061 416.624 10.7713C417.141 10.4332 417.744 10.2642 418.434 10.2642C418.831 10.2642 419.224 10.3305 419.612 10.4631C420 10.5956 420.353 10.8111 420.671 11.1094C420.989 11.4044 421.243 11.7955 421.431 12.2827C421.62 12.7699 421.715 13.3698 421.715 14.0824V14.5795H415.828V13.5653H420.522C420.522 13.1345 420.435 12.75 420.263 12.4119C420.094 12.0739 419.852 11.8071 419.537 11.6115C419.226 11.416 418.858 11.3182 418.434 11.3182C417.966 11.3182 417.562 11.4342 417.221 11.6662C416.882 11.8949 416.622 12.1932 416.44 12.5611C416.258 12.929 416.167 13.3234 416.167 13.7443V14.4205C416.167 14.9972 416.266 15.486 416.465 15.8871C416.667 16.2848 416.947 16.5881 417.305 16.7969C417.663 17.0024 418.079 17.1051 418.553 17.1051C418.861 17.1051 419.14 17.062 419.388 16.9759C419.64 16.8864 419.857 16.7538 420.039 16.5781C420.222 16.3991 420.363 16.1771 420.462 15.9119L421.596 16.2301C421.476 16.6146 421.276 16.9527 420.994 17.2443C420.712 17.5327 420.364 17.758 419.95 17.9205C419.536 18.0795 419.07 18.1591 418.553 18.1591ZM428.909 12.0739L427.855 12.3722C427.788 12.1965 427.691 12.0258 427.561 11.8601C427.435 11.6911 427.263 11.5518 427.044 11.4425C426.826 11.3331 426.546 11.2784 426.204 11.2784C425.737 11.2784 425.347 11.3861 425.036 11.6016C424.728 11.8137 424.574 12.0838 424.574 12.4119C424.574 12.7036 424.68 12.9339 424.892 13.103C425.104 13.272 425.435 13.4129 425.886 13.5256L427.02 13.804C427.702 13.9697 428.211 14.2232 428.546 14.5646C428.881 14.9027 429.048 15.3385 429.048 15.8722C429.048 16.3097 428.922 16.7008 428.67 17.0455C428.422 17.3902 428.074 17.6619 427.626 17.8608C427.179 18.0597 426.658 18.1591 426.065 18.1591C425.286 18.1591 424.641 17.9901 424.131 17.652C423.621 17.3139 423.297 16.8201 423.162 16.1705L424.275 15.892C424.381 16.303 424.582 16.6113 424.877 16.8168C425.175 17.0223 425.565 17.125 426.045 17.125C426.592 17.125 427.026 17.009 427.348 16.777C427.672 16.5417 427.835 16.2599 427.835 15.9318C427.835 15.6667 427.742 15.4446 427.556 15.2656C427.371 15.0833 427.086 14.9474 426.701 14.858L425.429 14.5597C424.729 14.3939 424.216 14.1371 423.887 13.7891C423.563 13.4377 423.4 12.9986 423.4 12.4716C423.4 12.0407 423.521 11.6596 423.763 11.3281C424.008 10.9967 424.342 10.7365 424.762 10.5476C425.187 10.3587 425.667 10.2642 426.204 10.2642C426.96 10.2642 427.553 10.4299 427.984 10.7614C428.418 11.0928 428.726 11.5303 428.909 12.0739ZM434.135 10.3636V11.358H430.178V10.3636H434.135ZM431.331 8.53409H432.504V15.8125C432.504 16.1439 432.552 16.3925 432.649 16.5582C432.748 16.7206 432.874 16.83 433.026 16.8864C433.182 16.9394 433.346 16.9659 433.519 16.9659C433.648 16.9659 433.754 16.9593 433.837 16.946C433.92 16.9295 433.986 16.9162 434.036 16.9062L434.274 17.9602C434.195 17.9901 434.084 18.0199 433.941 18.0497C433.799 18.0829 433.618 18.0994 433.399 18.0994C433.068 18.0994 432.743 18.0282 432.425 17.8857C432.11 17.7431 431.848 17.526 431.639 17.2344C431.434 16.9427 431.331 16.5748 431.331 16.1307V8.53409ZM441.172 12.0739L440.118 12.3722C440.052 12.1965 439.954 12.0258 439.825 11.8601C439.699 11.6911 439.527 11.5518 439.308 11.4425C439.089 11.3331 438.809 11.2784 438.468 11.2784C438.001 11.2784 437.611 11.3861 437.3 11.6016C436.991 11.8137 436.837 12.0838 436.837 12.4119C436.837 12.7036 436.943 12.9339 437.155 13.103C437.367 13.272 437.699 13.4129 438.15 13.5256L439.283 13.804C439.966 13.9697 440.475 14.2232 440.809 14.5646C441.144 14.9027 441.312 15.3385 441.312 15.8722C441.312 16.3097 441.186 16.7008 440.934 17.0455C440.685 17.3902 440.337 17.6619 439.89 17.8608C439.442 18.0597 438.922 18.1591 438.329 18.1591C437.55 18.1591 436.905 17.9901 436.395 17.652C435.884 17.3139 435.561 16.8201 435.425 16.1705L436.539 15.892C436.645 16.303 436.845 16.6113 437.14 16.8168C437.439 17.0223 437.828 17.125 438.309 17.125C438.856 17.125 439.29 17.009 439.611 16.777C439.936 16.5417 440.099 16.2599 440.099 15.9318C440.099 15.6667 440.006 15.4446 439.82 15.2656C439.635 15.0833 439.349 14.9474 438.965 14.858L437.692 14.5597C436.993 14.3939 436.479 14.1371 436.151 13.7891C435.826 13.4377 435.664 12.9986 435.664 12.4716C435.664 12.0407 435.785 11.6596 436.027 11.3281C436.272 10.9967 436.605 10.7365 437.026 10.5476C437.45 10.3587 437.931 10.2642 438.468 10.2642C439.224 10.2642 439.817 10.4299 440.248 10.7614C440.682 11.0928 440.99 11.5303 441.172 12.0739Z" fill="#252432"/>
<path d="M289 12.25L291.5 14.75L297 9.25M302 12C302 7.02944 297.971 3 293 3C288.029 3 284 7.02944 284 12C284 16.9706 288.029 21 293 21C297.971 21 302 16.9706 302 12Z" stroke="#252432" stroke-width="1.5" stroke-linecap="round" stroke-linejoin="round"/>
<path d="M325.915 50.8182H327.148V57.5597C327.148 58.2557 326.984 58.8771 326.656 59.424C326.331 59.9676 325.872 60.3968 325.278 60.7116C324.685 61.0232 323.989 61.179 323.19 61.179C322.392 61.179 321.696 61.0232 321.102 60.7116C320.509 60.3968 320.048 59.9676 319.72 59.424C319.395 58.8771 319.233 58.2557 319.233 57.5597V50.8182H320.466V57.4602C320.466 57.9574 320.575 58.3999 320.794 58.7876C321.013 59.1721 321.324 59.4754 321.729 59.6974C322.136 59.9162 322.624 60.0256 323.19 60.0256C323.757 60.0256 324.244 59.9162 324.652 59.6974C325.06 59.4754 325.371 59.1721 325.587 58.7876C325.805 58.3999 325.915 57.9574 325.915 57.4602V50.8182ZM330.624 56.4062V61H329.451V53.3636H330.584V54.5568H330.684C330.863 54.169 331.135 53.8575 331.499 53.6222C331.864 53.3835 332.334 53.2642 332.911 53.2642C333.428 53.2642 333.881 53.3703 334.268 53.5824C334.656 53.7912 334.958 54.1094 335.173 54.5369C335.389 54.9612 335.496 55.4981 335.496 56.1477V61H334.323V56.2273C334.323 55.6274 334.167 55.16 333.856 54.8253C333.544 54.4872 333.117 54.3182 332.573 54.3182C332.198 54.3182 331.864 54.3994 331.569 54.5618C331.277 54.7242 331.047 54.9612 330.878 55.2727C330.709 55.5843 330.624 55.9621 330.624 56.4062ZM338.814 50.8182V61H337.64V50.8182H338.814ZM340.963 61V53.3636H342.136V61H340.963ZM341.559 52.0909C341.33 52.0909 341.133 52.013 340.968 51.8572C340.805 51.7015 340.724 51.5142 340.724 51.2955C340.724 51.0767 340.805 50.8894 340.968 50.7337C341.133 50.5779 341.33 50.5 341.559 50.5C341.788 50.5 341.983 50.5779 342.146 50.7337C342.311 50.8894 342.394 51.0767 342.394 51.2955C342.394 51.5142 342.311 51.7015 342.146 51.8572C341.983 52.013 341.788 52.0909 341.559 52.0909ZM344.285 61V53.3636H345.418V54.5568H345.518C345.677 54.1491 345.934 53.8326 346.288 53.6072C346.643 53.3786 347.069 53.2642 347.566 53.2642C348.07 53.2642 348.489 53.3786 348.824 53.6072C349.162 53.8326 349.425 54.1491 349.614 54.5568H349.694C349.889 54.1624 350.183 53.8492 350.574 53.6172C350.965 53.3819 351.434 53.2642 351.981 53.2642C352.664 53.2642 353.222 53.478 353.656 53.9055C354.09 54.3298 354.308 54.991 354.308 55.8892V61H353.134V55.8892C353.134 55.3258 352.98 54.9231 352.672 54.6811C352.364 54.4392 352.001 54.3182 351.583 54.3182C351.046 54.3182 350.63 54.4806 350.335 54.8054C350.04 55.1269 349.893 55.5346 349.893 56.0284V61H348.7V55.7699C348.7 55.3357 348.559 54.986 348.277 54.7209C347.995 54.4524 347.632 54.3182 347.188 54.3182C346.883 54.3182 346.598 54.3994 346.333 54.5618C346.071 54.7242 345.859 54.9496 345.697 55.2379C345.538 55.523 345.458 55.8527 345.458 56.2273V61H344.285ZM356.453 61V53.3636H357.626V61H356.453ZM357.049 52.0909C356.821 52.0909 356.623 52.013 356.458 51.8572C356.295 51.7015 356.214 51.5142 356.214 51.2955C356.214 51.0767 356.295 50.8894 356.458 50.7337C356.623 50.5779 356.821 50.5 357.049 50.5C357.278 50.5 357.474 50.5779 357.636 50.7337C357.802 50.8894 357.885 51.0767 357.885 51.2955C357.885 51.5142 357.802 51.7015 357.636 51.8572C357.474 52.013 357.278 52.0909 357.049 52.0909ZM363.096 53.3636V54.358H359.139V53.3636H363.096ZM360.292 51.5341H361.465V58.8125C361.465 59.1439 361.513 59.3925 361.61 59.5582C361.709 59.7206 361.835 59.83 361.987 59.8864C362.143 59.9394 362.307 59.9659 362.48 59.9659C362.609 59.9659 362.715 59.9593 362.798 59.946C362.881 59.9295 362.947 59.9162 362.997 59.9062L363.235 60.9602C363.156 60.9901 363.045 61.0199 362.902 61.0497C362.76 61.0829 362.579 61.0994 362.36 61.0994C362.029 61.0994 361.704 61.0282 361.386 60.8857C361.071 60.7431 360.809 60.526 360.6 60.2344C360.395 59.9427 360.292 59.5748 360.292 59.1307V51.5341ZM367.981 61.1591C367.245 61.1591 366.61 60.9967 366.077 60.6719C365.546 60.3438 365.137 59.8864 364.849 59.2997C364.564 58.7098 364.421 58.0237 364.421 57.2415C364.421 56.4593 364.564 55.7699 364.849 55.1733C365.137 54.5734 365.538 54.1061 366.052 53.7713C366.569 53.4332 367.172 53.2642 367.861 53.2642C368.259 53.2642 368.652 53.3305 369.04 53.4631C369.427 53.5956 369.78 53.8111 370.099 54.1094C370.417 54.4044 370.67 54.7955 370.859 55.2827C371.048 55.7699 371.143 56.3698 371.143 57.0824V57.5795H365.256V56.5653H369.949C369.949 56.1345 369.863 55.75 369.691 55.4119C369.522 55.0739 369.28 54.8071 368.965 54.6115C368.653 54.416 368.286 54.3182 367.861 54.3182C367.394 54.3182 366.99 54.4342 366.648 54.6662C366.31 54.8949 366.05 55.1932 365.868 55.5611C365.685 55.929 365.594 56.3234 365.594 56.7443V57.4205C365.594 57.9972 365.694 58.486 365.893 58.8871C366.095 59.2848 366.375 59.5881 366.733 59.7969C367.091 60.0024 367.507 60.1051 367.981 60.1051C368.289 60.1051 368.567 60.062 368.816 59.9759C369.068 59.8864 369.285 59.7538 369.467 59.5781C369.649 59.3991 369.79 59.1771 369.89 58.9119L371.023 59.2301C370.904 59.6146 370.703 59.9527 370.422 60.2443C370.14 60.5327 369.792 60.758 369.378 60.9205C368.963 61.0795 368.498 61.1591 367.981 61.1591ZM375.811 61.1591C375.175 61.1591 374.613 60.9983 374.126 60.6768C373.638 60.352 373.257 59.8946 372.982 59.3047C372.707 58.7114 372.569 58.0104 372.569 57.2017C372.569 56.3996 372.707 55.7036 372.982 55.1136C373.257 54.5237 373.64 54.0679 374.131 53.7464C374.621 53.425 375.188 53.2642 375.831 53.2642C376.328 53.2642 376.721 53.3471 377.009 53.5128C377.301 53.6752 377.523 53.8608 377.675 54.0696C377.831 54.2751 377.952 54.4441 378.038 54.5767H378.138V50.8182H379.311V61H378.177V59.8267H378.038C377.952 59.9659 377.829 60.1416 377.67 60.3537C377.511 60.5625 377.284 60.7498 376.989 60.9155C376.694 61.0779 376.301 61.1591 375.811 61.1591ZM375.97 60.1051C376.441 60.1051 376.838 59.9825 377.163 59.7372C377.488 59.4886 377.735 59.1456 377.904 58.7081C378.073 58.2673 378.157 57.7585 378.157 57.1818C378.157 56.6117 378.075 56.1129 377.909 55.6854C377.743 55.2545 377.498 54.9197 377.173 54.6811C376.848 54.4392 376.447 54.3182 375.97 54.3182C375.473 54.3182 375.059 54.4458 374.727 54.701C374.399 54.9529 374.152 55.2959 373.986 55.7301C373.824 56.161 373.743 56.6449 373.743 57.1818C373.743 57.7254 373.826 58.2192 373.991 58.6634C374.16 59.1042 374.409 59.4555 374.737 59.7173C375.068 59.9759 375.479 60.1051 375.97 60.1051ZM385.56 61V53.3636H386.694V54.517H386.773C386.912 54.1392 387.164 53.8326 387.529 53.5973C387.894 53.362 388.305 53.2443 388.762 53.2443C388.848 53.2443 388.956 53.246 389.085 53.2493C389.214 53.2526 389.312 53.2576 389.378 53.2642V54.4574C389.339 54.4474 389.247 54.4325 389.105 54.4126C388.966 54.3894 388.818 54.3778 388.662 54.3778C388.291 54.3778 387.96 54.4557 387.668 54.6115C387.38 54.764 387.151 54.9761 386.982 55.2479C386.816 55.5163 386.733 55.8229 386.733 56.1676V61H385.56ZM393.738 61.1591C393.003 61.1591 392.368 60.9967 391.834 60.6719C391.304 60.3438 390.895 59.8864 390.606 59.2997C390.321 58.7098 390.179 58.0237 390.179 57.2415C390.179 56.4593 390.321 55.7699 390.606 55.1733C390.895 54.5734 391.296 54.1061 391.809 53.7713C392.327 53.4332 392.93 53.2642 393.619 53.2642C394.017 53.2642 394.41 53.3305 394.797 53.4631C395.185 53.5956 395.538 53.8111 395.856 54.1094C396.175 54.4044 396.428 54.7955 396.617 55.2827C396.806 55.7699 396.9 56.3698 396.9 57.0824V57.5795H391.014V56.5653H395.707C395.707 56.1345 395.621 55.75 395.449 55.4119C395.28 55.0739 395.038 54.8071 394.723 54.6115C394.411 54.416 394.043 54.3182 393.619 54.3182C393.152 54.3182 392.747 54.4342 392.406 54.6662C392.068 54.8949 391.808 55.1932 391.626 55.5611C391.443 55.929 391.352 56.3234 391.352 56.7443V57.4205C391.352 57.9972 391.452 58.486 391.65 58.8871C391.853 59.2848 392.133 59.5881 392.491 59.7969C392.849 60.0024 393.265 60.1051 393.738 60.1051C394.047 60.1051 394.325 60.062 394.574 59.9759C394.826 59.8864 395.043 59.7538 395.225 59.5781C395.407 59.3991 395.548 59.1771 395.648 58.9119L396.781 59.2301C396.662 59.6146 396.461 59.9527 396.18 60.2443C395.898 60.5327 395.55 60.758 395.135 60.9205C394.721 61.0795 394.256 61.1591 393.738 61.1591ZM403.895 63.8636V59.8267H403.796C403.71 59.9659 403.587 60.1416 403.428 60.3537C403.269 60.5625 403.042 60.7498 402.747 60.9155C402.452 61.0779 402.059 61.1591 401.569 61.1591C400.932 61.1591 400.371 60.9983 399.883 60.6768C399.396 60.352 399.015 59.8946 398.74 59.3047C398.465 58.7114 398.327 58.0104 398.327 57.2017C398.327 56.3996 398.465 55.7036 398.74 55.1136C399.015 54.5237 399.398 54.0679 399.888 53.7464C400.379 53.425 400.946 53.2642 401.589 53.2642C402.086 53.2642 402.479 53.3471 402.767 53.5128C403.059 53.6752 403.281 53.8608 403.433 54.0696C403.589 54.2751 403.71 54.4441 403.796 54.5767H403.935V53.3636H405.069V63.8636H403.895ZM401.728 60.1051C402.198 60.1051 402.596 59.9825 402.921 59.7372C403.246 59.4886 403.493 59.1456 403.662 58.7081C403.831 58.2673 403.915 57.7585 403.915 57.1818C403.915 56.6117 403.832 56.1129 403.667 55.6854C403.501 55.2545 403.256 54.9197 402.931 54.6811C402.606 54.4392 402.205 54.3182 401.728 54.3182C401.231 54.3182 400.816 54.4458 400.485 54.701C400.157 54.9529 399.91 55.2959 399.744 55.7301C399.582 56.161 399.501 56.6449 399.501 57.1818C399.501 57.7254 399.583 58.2192 399.749 58.6634C399.918 59.1042 400.167 59.4555 400.495 59.7173C400.826 59.9759 401.237 60.1051 401.728 60.1051ZM412.029 57.8778V53.3636H413.202V61H412.029V59.7074H411.949C411.77 60.0952 411.492 60.425 411.114 60.6967C410.736 60.9652 410.259 61.0994 409.682 61.0994C409.205 61.0994 408.781 60.995 408.41 60.7862C408.038 60.5741 407.747 60.2559 407.535 59.8317C407.323 59.4041 407.216 58.8655 407.216 58.2159V53.3636H408.39V58.1364C408.39 58.6932 408.546 59.1373 408.857 59.4688C409.172 59.8002 409.573 59.9659 410.06 59.9659C410.352 59.9659 410.648 59.8913 410.95 59.7422C411.255 59.593 411.51 59.3643 411.716 59.0561C411.925 58.7479 412.029 58.3551 412.029 57.8778ZM418.553 61.1591C417.817 61.1591 417.182 60.9967 416.649 60.6719C416.118 60.3438 415.709 59.8864 415.421 59.2997C415.136 58.7098 414.993 58.0237 414.993 57.2415C414.993 56.4593 415.136 55.7699 415.421 55.1733C415.709 54.5734 416.11 54.1061 416.624 53.7713C417.141 53.4332 417.744 53.2642 418.434 53.2642C418.831 53.2642 419.224 53.3305 419.612 53.4631C420 53.5956 420.353 53.8111 420.671 54.1094C420.989 54.4044 421.243 54.7955 421.431 55.2827C421.62 55.7699 421.715 56.3698 421.715 57.0824V57.5795H415.828V56.5653H420.522C420.522 56.1345 420.435 55.75 420.263 55.4119C420.094 55.0739 419.852 54.8071 419.537 54.6115C419.226 54.416 418.858 54.3182 418.434 54.3182C417.966 54.3182 417.562 54.4342 417.221 54.6662C416.882 54.8949 416.622 55.1932 416.44 55.5611C416.258 55.929 416.167 56.3234 416.167 56.7443V57.4205C416.167 57.9972 416.266 58.486 416.465 58.8871C416.667 59.2848 416.947 59.5881 417.305 59.7969C417.663 60.0024 418.079 60.1051 418.553 60.1051C418.861 60.1051 419.14 60.062 419.388 59.9759C419.64 59.8864 419.857 59.7538 420.039 59.5781C420.222 59.3991 420.363 59.1771 420.462 58.9119L421.596 59.2301C421.476 59.6146 421.276 59.9527 420.994 60.2443C420.712 60.5327 420.364 60.758 419.95 60.9205C419.536 61.0795 419.07 61.1591 418.553 61.1591ZM428.909 55.0739L427.855 55.3722C427.788 55.1965 427.691 55.0258 427.561 54.8601C427.435 54.6911 427.263 54.5518 427.044 54.4425C426.826 54.3331 426.546 54.2784 426.204 54.2784C425.737 54.2784 425.347 54.3861 425.036 54.6016C424.728 54.8137 424.574 55.0838 424.574 55.4119C424.574 55.7036 424.68 55.9339 424.892 56.103C425.104 56.272 425.435 56.4129 425.886 56.5256L427.02 56.804C427.702 56.9697 428.211 57.2232 428.546 57.5646C428.881 57.9027 429.048 58.3385 429.048 58.8722C429.048 59.3097 428.922 59.7008 428.67 60.0455C428.422 60.3902 428.074 60.6619 427.626 60.8608C427.179 61.0597 426.658 61.1591 426.065 61.1591C425.286 61.1591 424.641 60.9901 424.131 60.652C423.621 60.3139 423.297 59.8201 423.162 59.1705L424.275 58.892C424.381 59.303 424.582 59.6113 424.877 59.8168C425.175 60.0223 425.565 60.125 426.045 60.125C426.592 60.125 427.026 60.009 427.348 59.777C427.672 59.5417 427.835 59.2599 427.835 58.9318C427.835 58.6667 427.742 58.4446 427.556 58.2656C427.371 58.0833 427.086 57.9474 426.701 57.858L425.429 57.5597C424.729 57.3939 424.216 57.1371 423.887 56.7891C423.563 56.4377 423.4 55.9986 423.4 55.4716C423.4 55.0407 423.521 54.6596 423.763 54.3281C424.008 53.9967 424.342 53.7365 424.762 53.5476C425.187 53.3587 425.667 53.2642 426.204 53.2642C426.96 53.2642 427.553 53.4299 427.984 53.7614C428.418 54.0928 428.726 54.5303 428.909 55.0739ZM434.135 53.3636V54.358H430.178V53.3636H434.135ZM431.331 51.5341H432.504V58.8125C432.504 59.1439 432.552 59.3925 432.649 59.5582C432.748 59.7206 432.874 59.83 433.026 59.8864C433.182 59.9394 433.346 59.9659 433.519 59.9659C433.648 59.9659 433.754 59.9593 433.837 59.946C433.92 59.9295 433.986 59.9162 434.036 59.9062L434.274 60.9602C434.195 60.9901 434.084 61.0199 433.941 61.0497C433.799 61.0829 433.618 61.0994 433.399 61.0994C433.068 61.0994 432.743 61.0282 432.425 60.8857C432.11 60.7431 431.848 60.526 431.639 60.2344C431.434 59.9427 431.331 59.5748 431.331 59.1307V51.5341ZM441.172 55.0739L440.118 55.3722C440.052 55.1965 439.954 55.0258 439.825 54.8601C439.699 54.6911 439.527 54.5518 439.308 54.4425C439.089 54.3331 438.809 54.2784 438.468 54.2784C438.001 54.2784 437.611 54.3861 437.3 54.6016C436.991 54.8137 436.837 55.0838 436.837 55.4119C436.837 55.7036 436.943 55.9339 437.155 56.103C437.367 56.272 437.699 56.4129 438.15 56.5256L439.283 56.804C439.966 56.9697 440.475 57.2232 440.809 57.5646C441.144 57.9027 441.312 58.3385 441.312 58.8722C441.312 59.3097 441.186 59.7008 440.934 60.0455C440.685 60.3902 440.337 60.6619 439.89 60.8608C439.442 61.0597 438.922 61.1591 438.329 61.1591C437.55 61.1591 436.905 60.9901 436.395 60.652C435.884 60.3139 435.561 59.8201 435.425 59.1705L436.539 58.892C436.645 59.303 436.845 59.6113 437.14 59.8168C437.439 60.0223 437.828 60.125 438.309 60.125C438.856 60.125 439.29 60.009 439.611 59.777C439.936 59.5417 440.099 59.2599 440.099 58.9318C440.099 58.6667 440.006 58.4446 439.82 58.2656C439.635 58.0833 439.349 57.9474 438.965 57.858L437.692 57.5597C436.993 57.3939 436.479 57.1371 436.151 56.7891C435.826 56.4377 435.664 55.9986 435.664 55.4716C435.664 55.0407 435.785 54.6596 436.027 54.3281C436.272 53.9967 436.605 53.7365 437.026 53.5476C437.45 53.3587 437.931 53.2642 438.468 53.2642C439.224 53.2642 439.817 53.4299 440.248 53.7614C440.682 54.0928 440.99 54.5303 441.172 55.0739Z" fill="#252432"/>
<path d="M289 55.25L291.5 57.75L297 52.25M302 55C302 50.0294 297.971 46 293 46C288.029 46 284 50.0294 284 55C284 59.9706 288.029 64 293 64C297.971 64 302 59.9706 302 55Z" stroke="#252432" stroke-width="1.5" stroke-linecap="round" stroke-linejoin="round"/>
<path d="M325.915 93.8182H327.148V100.56C327.148 101.256 326.984 101.877 326.656 102.424C326.331 102.968 325.872 103.397 325.278 103.712C324.685 104.023 323.989 104.179 323.19 104.179C322.392 104.179 321.696 104.023 321.102 103.712C320.509 103.397 320.048 102.968 319.72 102.424C319.395 101.877 319.233 101.256 319.233 100.56V93.8182H320.466V100.46C320.466 100.957 320.575 101.4 320.794 101.788C321.013 102.172 321.324 102.475 321.729 102.697C322.136 102.916 322.624 103.026 323.19 103.026C323.757 103.026 324.244 102.916 324.652 102.697C325.06 102.475 325.371 102.172 325.587 101.788C325.805 101.4 325.915 100.957 325.915 100.46V93.8182ZM330.624 99.4062V104H329.451V96.3636H330.584V97.5568H330.684C330.863 97.169 331.135 96.8575 331.499 96.6222C331.864 96.3835 332.334 96.2642 332.911 96.2642C333.428 96.2642 333.881 96.3703 334.268 96.5824C334.656 96.7912 334.958 97.1094 335.173 97.5369C335.389 97.9612 335.496 98.4981 335.496 99.1477V104H334.323V99.2273C334.323 98.6274 334.167 98.16 333.856 97.8253C333.544 97.4872 333.117 97.3182 332.573 97.3182C332.198 97.3182 331.864 97.3994 331.569 97.5618C331.277 97.7242 331.047 97.9612 330.878 98.2727C330.709 98.5843 330.624 98.9621 330.624 99.4062ZM338.814 93.8182V104H337.64V93.8182H338.814ZM340.963 104V96.3636H342.136V104H340.963ZM341.559 95.0909C341.33 95.0909 341.133 95.013 340.968 94.8572C340.805 94.7015 340.724 94.5142 340.724 94.2955C340.724 94.0767 340.805 93.8894 340.968 93.7337C341.133 93.5779 341.33 93.5 341.559 93.5C341.788 93.5 341.983 93.5779 342.146 93.7337C342.311 93.8894 342.394 94.0767 342.394 94.2955C342.394 94.5142 342.311 94.7015 342.146 94.8572C341.983 95.013 341.788 95.0909 341.559 95.0909ZM344.285 104V96.3636H345.418V97.5568H345.518C345.677 97.1491 345.934 96.8326 346.288 96.6072C346.643 96.3786 347.069 96.2642 347.566 96.2642C348.07 96.2642 348.489 96.3786 348.824 96.6072C349.162 96.8326 349.425 97.1491 349.614 97.5568H349.694C349.889 97.1624 350.183 96.8492 350.574 96.6172C350.965 96.3819 351.434 96.2642 351.981 96.2642C352.664 96.2642 353.222 96.478 353.656 96.9055C354.09 97.3298 354.308 97.991 354.308 98.8892V104H353.134V98.8892C353.134 98.3258 352.98 97.9231 352.672 97.6811C352.364 97.4392 352.001 97.3182 351.583 97.3182C351.046 97.3182 350.63 97.4806 350.335 97.8054C350.04 98.1269 349.893 98.5346 349.893 99.0284V104H348.7V98.7699C348.7 98.3357 348.559 97.986 348.277 97.7209C347.995 97.4524 347.632 97.3182 347.188 97.3182C346.883 97.3182 346.598 97.3994 346.333 97.5618C346.071 97.7242 345.859 97.9496 345.697 98.2379C345.538 98.523 345.458 98.8527 345.458 99.2273V104H344.285ZM356.453 104V96.3636H357.626V104H356.453ZM357.049 95.0909C356.821 95.0909 356.623 95.013 356.458 94.8572C356.295 94.7015 356.214 94.5142 356.214 94.2955C356.214 94.0767 356.295 93.8894 356.458 93.7337C356.623 93.5779 356.821 93.5 357.049 93.5C357.278 93.5 357.474 93.5779 357.636 93.7337C357.802 93.8894 357.885 94.0767 357.885 94.2955C357.885 94.5142 357.802 94.7015 357.636 94.8572C357.474 95.013 357.278 95.0909 357.049 95.0909ZM363.096 96.3636V97.358H359.139V96.3636H363.096ZM360.292 94.5341H361.465V101.812C361.465 102.144 361.513 102.393 361.61 102.558C361.709 102.721 361.835 102.83 361.987 102.886C362.143 102.939 362.307 102.966 362.48 102.966C362.609 102.966 362.715 102.959 362.798 102.946C362.881 102.929 362.947 102.916 362.997 102.906L363.235 103.96C363.156 103.99 363.045 104.02 362.902 104.05C362.76 104.083 362.579 104.099 362.36 104.099C362.029 104.099 361.704 104.028 361.386 103.886C361.071 103.743 360.809 103.526 360.6 103.234C360.395 102.943 360.292 102.575 360.292 102.131V94.5341ZM367.981 104.159C367.245 104.159 366.61 103.997 366.077 103.672C365.546 103.344 365.137 102.886 364.849 102.3C364.564 101.71 364.421 101.024 364.421 100.241C364.421 99.4593 364.564 98.7699 364.849 98.1733C365.137 97.5734 365.538 97.1061 366.052 96.7713C366.569 96.4332 367.172 96.2642 367.861 96.2642C368.259 96.2642 368.652 96.3305 369.04 96.4631C369.427 96.5956 369.78 96.8111 370.099 97.1094C370.417 97.4044 370.67 97.7955 370.859 98.2827C371.048 98.7699 371.143 99.3698 371.143 100.082V100.58H365.256V99.5653H369.949C369.949 99.1345 369.863 98.75 369.691 98.4119C369.522 98.0739 369.28 97.8071 368.965 97.6115C368.653 97.416 368.286 97.3182 367.861 97.3182C367.394 97.3182 366.99 97.4342 366.648 97.6662C366.31 97.8949 366.05 98.1932 365.868 98.5611C365.685 98.929 365.594 99.3234 365.594 99.7443V100.42C365.594 100.997 365.694 101.486 365.893 101.887C366.095 102.285 366.375 102.588 366.733 102.797C367.091 103.002 367.507 103.105 367.981 103.105C368.289 103.105 368.567 103.062 368.816 102.976C369.068 102.886 369.285 102.754 369.467 102.578C369.649 102.399 369.79 102.177 369.89 101.912L371.023 102.23C370.904 102.615 370.703 102.953 370.422 103.244C370.14 103.533 369.792 103.758 369.378 103.92C368.963 104.08 368.498 104.159 367.981 104.159ZM375.811 104.159C375.175 104.159 374.613 103.998 374.126 103.677C373.638 103.352 373.257 102.895 372.982 102.305C372.707 101.711 372.569 101.01 372.569 100.202C372.569 99.3996 372.707 98.7036 372.982 98.1136C373.257 97.5237 373.64 97.0679 374.131 96.7464C374.621 96.425 375.188 96.2642 375.831 96.2642C376.328 96.2642 376.721 96.3471 377.009 96.5128C377.301 96.6752 377.523 96.8608 377.675 97.0696C377.831 97.2751 377.952 97.4441 378.038 97.5767H378.138V93.8182H379.311V104H378.177V102.827H378.038C377.952 102.966 377.829 103.142 377.67 103.354C377.511 103.562 377.284 103.75 376.989 103.915C376.694 104.078 376.301 104.159 375.811 104.159ZM375.97 103.105C376.441 103.105 376.838 102.982 377.163 102.737C377.488 102.489 377.735 102.146 377.904 101.708C378.073 101.267 378.157 100.759 378.157 100.182C378.157 99.6117 378.075 99.1129 377.909 98.6854C377.743 98.2545 377.498 97.9197 377.173 97.6811C376.848 97.4392 376.447 97.3182 375.97 97.3182C375.473 97.3182 375.059 97.4458 374.727 97.701C374.399 97.9529 374.152 98.2959 373.986 98.7301C373.824 99.161 373.743 99.6449 373.743 100.182C373.743 100.725 373.826 101.219 373.991 101.663C374.16 102.104 374.409 102.455 374.737 102.717C375.068 102.976 375.479 103.105 375.97 103.105ZM385.56 104V96.3636H386.694V97.517H386.773C386.912 97.1392 387.164 96.8326 387.529 96.5973C387.894 96.362 388.305 96.2443 388.762 96.2443C388.848 96.2443 388.956 96.246 389.085 96.2493C389.214 96.2526 389.312 96.2576 389.378 96.2642V97.4574C389.339 97.4474 389.247 97.4325 389.105 97.4126C388.966 97.3894 388.818 97.3778 388.662 97.3778C388.291 97.3778 387.96 97.4557 387.668 97.6115C387.38 97.764 387.151 97.9761 386.982 98.2479C386.816 98.5163 386.733 98.8229 386.733 99.1676V104H385.56ZM393.738 104.159C393.003 104.159 392.368 103.997 391.834 103.672C391.304 103.344 390.895 102.886 390.606 102.3C390.321 101.71 390.179 101.024 390.179 100.241C390.179 99.4593 390.321 98.7699 390.606 98.1733C390.895 97.5734 391.296 97.1061 391.809 96.7713C392.327 96.4332 392.93 96.2642 393.619 96.2642C394.017 96.2642 394.41 96.3305 394.797 96.4631C395.185 96.5956 395.538 96.8111 395.856 97.1094C396.175 97.4044 396.428 97.7955 396.617 98.2827C396.806 98.7699 396.9 99.3698 396.9 100.082V100.58H391.014V99.5653H395.707C395.707 99.1345 395.621 98.75 395.449 98.4119C395.28 98.0739 395.038 97.8071 394.723 97.6115C394.411 97.416 394.043 97.3182 393.619 97.3182C393.152 97.3182 392.747 97.4342 392.406 97.6662C392.068 97.8949 391.808 98.1932 391.626 98.5611C391.443 98.929 391.352 99.3234 391.352 99.7443V100.42C391.352 100.997 391.452 101.486 391.65 101.887C391.853 102.285 392.133 102.588 392.491 102.797C392.849 103.002 393.265 103.105 393.738 103.105C394.047 103.105 394.325 103.062 394.574 102.976C394.826 102.886 395.043 102.754 395.225 102.578C395.407 102.399 395.548 102.177 395.648 101.912L396.781 102.23C396.662 102.615 396.461 102.953 396.18 103.244C395.898 103.533 395.55 103.758 395.135 103.92C394.721 104.08 394.256 104.159 393.738 104.159ZM403.895 106.864V102.827H403.796C403.71 102.966 403.587 103.142 403.428 103.354C403.269 103.562 403.042 103.75 402.747 103.915C402.452 104.078 402.059 104.159 401.569 104.159C400.932 104.159 400.371 103.998 399.883 103.677C399.396 103.352 399.015 102.895 398.74 102.305C398.465 101.711 398.327 101.01 398.327 100.202C398.327 99.3996 398.465 98.7036 398.74 98.1136C399.015 97.5237 399.398 97.0679 399.888 96.7464C400.379 96.425 400.946 96.2642 401.589 96.2642C402.086 96.2642 402.479 96.3471 402.767 96.5128C403.059 96.6752 403.281 96.8608 403.433 97.0696C403.589 97.2751 403.71 97.4441 403.796 97.5767H403.935V96.3636H405.069V106.864H403.895ZM401.728 103.105C402.198 103.105 402.596 102.982 402.921 102.737C403.246 102.489 403.493 102.146 403.662 101.708C403.831 101.267 403.915 100.759 403.915 100.182C403.915 99.6117 403.832 99.1129 403.667 98.6854C403.501 98.2545 403.256 97.9197 402.931 97.6811C402.606 97.4392 402.205 97.3182 401.728 97.3182C401.231 97.3182 400.816 97.4458 400.485 97.701C400.157 97.9529 399.91 98.2959 399.744 98.7301C399.582 99.161 399.501 99.6449 399.501 100.182C399.501 100.725 399.583 101.219 399.749 101.663C399.918 102.104 400.167 102.455 400.495 102.717C400.826 102.976 401.237 103.105 401.728 103.105ZM412.029 100.878V96.3636H413.202V104H412.029V102.707H411.949C411.77 103.095 411.492 103.425 411.114 103.697C410.736 103.965 410.259 104.099 409.682 104.099C409.205 104.099 408.781 103.995 408.41 103.786C408.038 103.574 407.747 103.256 407.535 102.832C407.323 102.404 407.216 101.866 407.216 101.216V96.3636H408.39V101.136C408.39 101.693 408.546 102.137 408.857 102.469C409.172 102.8 409.573 102.966 410.06 102.966C410.352 102.966 410.648 102.891 410.95 102.742C411.255 102.593 411.51 102.364 411.716 102.056C411.925 101.748 412.029 101.355 412.029 100.878ZM418.553 104.159C417.817 104.159 417.182 103.997 416.649 103.672C416.118 103.344 415.709 102.886 415.421 102.3C415.136 101.71 414.993 101.024 414.993 100.241C414.993 99.4593 415.136 98.7699 415.421 98.1733C415.709 97.5734 416.11 97.1061 416.624 96.7713C417.141 96.4332 417.744 96.2642 418.434 96.2642C418.831 96.2642 419.224 96.3305 419.612 96.4631C420 96.5956 420.353 96.8111 420.671 97.1094C420.989 97.4044 421.243 97.7955 421.431 98.2827C421.62 98.7699 421.715 99.3698 421.715 100.082V100.58H415.828V99.5653H420.522C420.522 99.1345 420.435 98.75 420.263 98.4119C420.094 98.0739 419.852 97.8071 419.537 97.6115C419.226 97.416 418.858 97.3182 418.434 97.3182C417.966 97.3182 417.562 97.4342 417.221 97.6662C416.882 97.8949 416.622 98.1932 416.44 98.5611C416.258 98.929 416.167 99.3234 416.167 99.7443V100.42C416.167 100.997 416.266 101.486 416.465 101.887C416.667 102.285 416.947 102.588 417.305 102.797C417.663 103.002 418.079 103.105 418.553 103.105C418.861 103.105 419.14 103.062 419.388 102.976C419.64 102.886 419.857 102.754 420.039 102.578C420.222 102.399 420.363 102.177 420.462 101.912L421.596 102.23C421.476 102.615 421.276 102.953 420.994 103.244C420.712 103.533 420.364 103.758 419.95 103.92C419.536 104.08 419.07 104.159 418.553 104.159ZM428.909 98.0739L427.855 98.3722C427.788 98.1965 427.691 98.0258 427.561 97.8601C427.435 97.6911 427.263 97.5518 427.044 97.4425C426.826 97.3331 426.546 97.2784 426.204 97.2784C425.737 97.2784 425.347 97.3861 425.036 97.6016C424.728 97.8137 424.574 98.0838 424.574 98.4119C424.574 98.7036 424.68 98.9339 424.892 99.103C425.104 99.272 425.435 99.4129 425.886 99.5256L427.02 99.804C427.702 99.9697 428.211 100.223 428.546 100.565C428.881 100.903 429.048 101.339 429.048 101.872C429.048 102.31 428.922 102.701 428.67 103.045C428.422 103.39 428.074 103.662 427.626 103.861C427.179 104.06 426.658 104.159 426.065 104.159C425.286 104.159 424.641 103.99 424.131 103.652C423.621 103.314 423.297 102.82 423.162 102.17L424.275 101.892C424.381 102.303 424.582 102.611 424.877 102.817C425.175 103.022 425.565 103.125 426.045 103.125C426.592 103.125 427.026 103.009 427.348 102.777C427.672 102.542 427.835 102.26 427.835 101.932C427.835 101.667 427.742 101.445 427.556 101.266C427.371 101.083 427.086 100.947 426.701 100.858L425.429 100.56C424.729 100.394 424.216 100.137 423.887 99.7891C423.563 99.4377 423.4 98.9986 423.4 98.4716C423.4 98.0407 423.521 97.6596 423.763 97.3281C424.008 96.9967 424.342 96.7365 424.762 96.5476C425.187 96.3587 425.667 96.2642 426.204 96.2642C426.96 96.2642 427.553 96.4299 427.984 96.7614C428.418 97.0928 428.726 97.5303 428.909 98.0739ZM434.135 96.3636V97.358H430.178V96.3636H434.135ZM431.331 94.5341H432.504V101.812C432.504 102.144 432.552 102.393 432.649 102.558C432.748 102.721 432.874 102.83 433.026 102.886C433.182 102.939 433.346 102.966 433.519 102.966C433.648 102.966 433.754 102.959 433.837 102.946C433.92 102.929 433.986 102.916 434.036 102.906L434.274 103.96C434.195 103.99 434.084 104.02 433.941 104.05C433.799 104.083 433.618 104.099 433.399 104.099C433.068 104.099 432.743 104.028 432.425 103.886C432.11 103.743 431.848 103.526 431.639 103.234C431.434 102.943 431.331 102.575 431.331 102.131V94.5341ZM441.172 98.0739L440.118 98.3722C440.052 98.1965 439.954 98.0258 439.825 97.8601C439.699 97.6911 439.527 97.5518 439.308 97.4425C439.089 97.3331 438.809 97.2784 438.468 97.2784C438.001 97.2784 437.611 97.3861 437.3 97.6016C436.991 97.8137 436.837 98.0838 436.837 98.4119C436.837 98.7036 436.943 98.9339 437.155 99.103C437.367 99.272 437.699 99.4129 438.15 99.5256L439.283 99.804C439.966 99.9697 440.475 100.223 440.809 100.565C441.144 100.903 441.312 101.339 441.312 101.872C441.312 102.31 441.186 102.701 440.934 103.045C440.685 103.39 440.337 103.662 439.89 103.861C439.442 104.06 438.922 104.159 438.329 104.159C437.55 104.159 436.905 103.99 436.395 103.652C435.884 103.314 435.561 102.82 435.425 102.17L436.539 101.892C436.645 102.303 436.845 102.611 437.14 102.817C437.439 103.022 437.828 103.125 438.309 103.125C438.856 103.125 439.29 103.009 439.611 102.777C439.936 102.542 440.099 102.26 440.099 101.932C440.099 101.667 440.006 101.445 439.82 101.266C439.635 101.083 439.349 100.947 438.965 100.858L437.692 100.56C436.993 100.394 436.479 100.137 436.151 99.7891C435.826 99.4377 435.664 98.9986 435.664 98.4716C435.664 98.0407 435.785 97.6596 436.027 97.3281C436.272 96.9967 436.605 96.7365 437.026 96.5476C437.45 96.3587 437.931 96.2642 438.468 96.2642C439.224 96.2642 439.817 96.4299 440.248 96.7614C440.682 97.0928 440.99 97.5303 441.172 98.0739Z" fill="#252432"/>
<path d="M289 98.25L291.5 100.75L297 95.25M302 98C302 93.0294 297.971 89 293 89C288.029 89 284 93.0294 284 98C284 102.971 288.029 107 293 107C297.971 107 302 102.971 302 98Z" stroke="#252432" stroke-width="1.5" stroke-linecap="round" stroke-linejoin="round"/>
</svg>
