<svg width="44" height="44" viewBox="0 0 44 44" fill="none" xmlns="http://www.w3.org/2000/svg">
<rect width="44" height="44" rx="9" fill="#F5F8FF"/>
<path d="M20.2442 14.8696C21.0022 13.4797 22.9979 13.4797 23.7559 14.8696L24.9723 17.0999C25.2599 17.6274 25.7694 17.9976 26.36 18.1082L28.8571 18.5758C30.4132 18.8672 31.0299 20.7653 29.9422 21.9157L28.1969 23.7617C27.7842 24.1983 27.5895 24.7973 27.6668 25.3931L27.9938 27.9125C28.1975 29.4824 26.5829 30.6555 25.1527 29.9766L22.8577 28.8871C22.3149 28.6295 21.6851 28.6295 21.1424 28.8871L18.8473 29.9766C17.4171 30.6555 15.8026 29.4824 16.0063 27.9125L16.3332 25.3931C16.4105 24.7973 16.2159 24.1983 15.8031 23.7617L14.0578 21.9157C12.9702 20.7653 13.5869 18.8672 15.143 18.5758L17.6401 18.1082C18.2306 17.9976 18.7401 17.6274 19.0278 17.0999L20.2442 14.8696Z" stroke="#252432" stroke-width="1.5" stroke-linejoin="round"/>
</svg>
